<svg width="24" height="24" viewBox="0 0 24 24" fill="none" xmlns="http://www.w3.org/2000/svg">
<path fill-rule="evenodd" clip-rule="evenodd" d="M12 12.5C16.4182 12.5 19.9999 13.7143 20 18.5713V19L19.9893 19.2041C19.887 20.2128 19.0357 21 18 21H6C4.89543 21 4 20.1046 4 19V18.5713C4.00007 13.7143 7.58176 12.5 12 12.5Z" fill="#343434"/>
<path fill-rule="evenodd" clip-rule="evenodd" d="M14 3C15.1046 3 16 3.89543 16 5V7C16 9.20914 14.2091 11 12 11C9.79086 11 8 9.20914 8 7C8 4.79086 9.79086 3 12 3H14Z" fill="#343434"/>
</svg>
