<svg width="24" height="24" viewBox="0 0 24 24" fill="none" xmlns="http://www.w3.org/2000/svg">
<path d="M10.9999 13.725L7.69994 15.625L7.19994 18.375C7.14994 18.6583 7.01661 18.8792 6.79994 19.0375C6.58328 19.1958 6.33328 19.25 6.04994 19.2C5.76661 19.15 5.54994 19.0125 5.39994 18.7875C5.24994 18.5625 5.19994 18.3083 5.24994 18.025L5.44994 16.95L4.69994 17.375C4.46661 17.5083 4.21661 17.5375 3.94994 17.4625C3.68328 17.3875 3.48328 17.2333 3.34994 17C3.21661 16.7667 3.18328 16.5125 3.24994 16.2375C3.31661 15.9625 3.46661 15.7583 3.69994 15.625L4.44994 15.2L3.39994 14.825C3.13328 14.7417 2.94161 14.575 2.82494 14.325C2.70828 14.075 2.69994 13.8167 2.79994 13.55C2.88328 13.2833 3.04994 13.0958 3.29994 12.9875C3.54994 12.8792 3.80828 12.8667 4.07494 12.95L6.69994 13.9L9.99994 12L6.69994 10.1L4.07494 11.05C3.80828 11.1333 3.55411 11.1208 3.31244 11.0125C3.07078 10.9042 2.89994 10.7167 2.79994 10.45C2.69994 10.1833 2.70828 9.92083 2.82494 9.6625C2.94161 9.40417 3.13328 9.23333 3.39994 9.15L4.44994 8.8L3.69994 8.375C3.46661 8.24167 3.31661 8.0375 3.24994 7.7625C3.18328 7.4875 3.21661 7.23333 3.34994 7C3.48328 6.76667 3.68328 6.6125 3.94994 6.5375C4.21661 6.4625 4.46661 6.49167 4.69994 6.625L5.44994 7.05L5.24994 5.975C5.19994 5.69167 5.24994 5.4375 5.39994 5.2125C5.54994 4.9875 5.76661 4.85 6.04994 4.8C6.33328 4.75 6.58328 4.80417 6.79994 4.9625C7.01661 5.12083 7.14994 5.34167 7.19994 5.625L7.69994 8.375L10.9999 10.275V6.45L8.87494 4.65C8.65828 4.46667 8.53744 4.24167 8.51244 3.975C8.48744 3.70833 8.56661 3.46667 8.74994 3.25C8.93328 3.03333 9.15828 2.9125 9.42494 2.8875C9.69161 2.8625 9.93328 2.94167 10.1499 3.125L10.9999 3.85V3C10.9999 2.71667 11.0958 2.47917 11.2874 2.2875C11.4791 2.09583 11.7166 2 11.9999 2C12.2833 2 12.5208 2.09583 12.7124 2.2875C12.9041 2.47917 12.9999 2.71667 12.9999 3V3.85L13.8499 3.125C14.0666 2.94167 14.3083 2.8625 14.5749 2.8875C14.8416 2.9125 15.0666 3.03333 15.2499 3.25C15.4333 3.46667 15.5124 3.70833 15.4874 3.975C15.4624 4.24167 15.3416 4.46667 15.1249 4.65L12.9999 6.45V10.275L16.2999 8.375L16.7999 5.625C16.8499 5.34167 16.9833 5.12083 17.1999 4.9625C17.4166 4.80417 17.6666 4.75 17.9499 4.8C18.2333 4.85 18.4499 4.9875 18.5999 5.2125C18.7499 5.4375 18.7999 5.69167 18.7499 5.975L18.5499 7.05L19.2999 6.625C19.5333 6.49167 19.7833 6.4625 20.0499 6.5375C20.3166 6.6125 20.5166 6.76667 20.6499 7C20.7833 7.23333 20.8166 7.4875 20.7499 7.7625C20.6833 8.0375 20.5333 8.24167 20.2999 8.375L19.5499 8.8L20.5999 9.175C20.8666 9.25833 21.0583 9.425 21.1749 9.675C21.2916 9.925 21.2999 10.1833 21.1999 10.45C21.1166 10.7167 20.9499 10.9042 20.6999 11.0125C20.4499 11.1208 20.1916 11.1333 19.9249 11.05L17.2999 10.1L13.9999 12L17.2999 13.9L19.9249 12.95C20.1916 12.8667 20.4458 12.8792 20.6874 12.9875C20.9291 13.0958 21.0999 13.2833 21.1999 13.55C21.2999 13.8167 21.2916 14.0792 21.1749 14.3375C21.0583 14.5958 20.8666 14.7667 20.5999 14.85L19.5499 15.2L20.2999 15.625C20.5333 15.7583 20.6833 15.9625 20.7499 16.2375C20.8166 16.5125 20.7833 16.7667 20.6499 17C20.5166 17.2333 20.3166 17.3875 20.0499 17.4625C19.7833 17.5375 19.5333 17.5083 19.2999 17.375L18.5499 16.95L18.7499 18.025C18.7999 18.3083 18.7499 18.5625 18.5999 18.7875C18.4499 19.0125 18.2333 19.15 17.9499 19.2C17.6666 19.25 17.4166 19.1958 17.1999 19.0375C16.9833 18.8792 16.8499 18.6583 16.7999 18.375L16.2999 15.625L12.9999 13.725V17.55L15.1249 19.35C15.3416 19.5333 15.4624 19.7583 15.4874 20.025C15.5124 20.2917 15.4333 20.5333 15.2499 20.75C15.0666 20.9667 14.8416 21.0875 14.5749 21.1125C14.3083 21.1375 14.0666 21.0583 13.8499 20.875L12.9999 20.15V21C12.9999 21.2833 12.9041 21.5208 12.7124 21.7125C12.5208 21.9042 12.2833 22 11.9999 22C11.7166 22 11.4791 21.9042 11.2874 21.7125C11.0958 21.5208 10.9999 21.2833 10.9999 21V20.15L10.1499 20.875C9.93328 21.0583 9.69161 21.1375 9.42494 21.1125C9.15828 21.0875 8.93328 20.9667 8.74994 20.75C8.56661 20.5333 8.48744 20.2917 8.51244 20.025C8.53744 19.7583 8.65828 19.5333 8.87494 19.35L10.9999 17.55V13.725Z" fill="#3876C2"/>
</svg>
