<svg width="24" height="24" viewBox="0 0 24 24" fill="none" xmlns="http://www.w3.org/2000/svg">
<path fill-rule="evenodd" clip-rule="evenodd" d="M10.7393 2.94729C11.4739 2.35078 12.5262 2.35102 13.2608 2.94729L20.6309 8.9346C21.0595 9.2828 21.1245 9.9132 20.7765 10.3418C20.4671 10.7225 19.936 10.8157 19.5206 10.5879L18.9893 19.6172C18.9311 20.6079 18.158 21.3953 17.1895 21.4903L16.9933 21.5H6.76474C5.77195 21.5 4.94036 20.7743 4.78915 19.8125L4.76864 19.6172L4.24227 10.6797C3.87733 10.7706 3.47646 10.6529 3.22372 10.3418C2.87604 9.91321 2.94084 9.2827 3.36923 8.9346L10.7393 2.94729ZM10.5001 15.5C9.94782 15.5 9.50011 15.9478 9.50009 16.5V19.5H14.5001V16.5C14.5001 15.9478 14.0523 15.5 13.5001 15.5H10.5001ZM12.0001 9.50003C11.1717 9.50003 10.5001 10.1716 10.5001 11C10.5001 11.8285 11.1717 12.5 12.0001 12.5C12.8285 12.5 13.5001 11.8284 13.5001 11C13.5001 10.1716 12.8285 9.50004 12.0001 9.50003Z" fill="#343434"/>
</svg>
