<svg width="24" height="24" viewBox="0 0 24 24" fill="none" xmlns="http://www.w3.org/2000/svg">
<path d="M21 20.6C20.8667 20.6 20.7417 20.575 20.625 20.525C20.5083 20.475 20.4 20.4 20.3 20.3L18 18H8C7.45 18 6.97917 17.8042 6.5875 17.4125C6.19583 17.0208 6 16.55 6 16V15H17C17.55 15 18.0208 14.8042 18.4125 14.4125C18.8042 14.0208 19 13.55 19 13V6H20C20.55 6 21.0208 6.19583 21.4125 6.5875C21.8042 6.97917 22 7.45 22 8V19.575C22 19.875 21.9 20.1208 21.7 20.3125C21.5 20.5042 21.2667 20.6 21 20.6ZM3 15.6C2.73333 15.6 2.5 15.5042 2.3 15.3125C2.1 15.1208 2 14.875 2 14.575V4C2 3.45 2.19583 2.97917 2.5875 2.5875C2.97917 2.19583 3.45 2 4 2H15C15.55 2 16.0208 2.19583 16.4125 2.5875C16.8042 2.97917 17 3.45 17 4V11C17 11.55 16.8042 12.0208 16.4125 12.4125C16.0208 12.8042 15.55 13 15 13H6L3.7 15.3C3.6 15.4 3.49167 15.475 3.375 15.525C3.25833 15.575 3.13333 15.6 3 15.6Z" fill="#343434"/>
</svg>
