<svg width="178" height="100" viewBox="0 0 178 100" fill="none" xmlns="http://www.w3.org/2000/svg">
<rect width="178" height="100" fill="#FFEFE5"/>
<path d="M119.145 57.6151C120.169 57.6151 121 58.4302 121 59.4357V63.0769C121 64.0824 120.169 64.8975 119.145 64.8975H58.8551C57.8305 64.8975 57 64.0824 57 63.0769V59.4357C57 58.4302 57.8305 57.6151 58.8551 57.6151H119.145Z" fill="#B97942"/>
<path d="M119.145 43.0505C120.169 43.0505 121 43.8656 121 44.8711V48.5123C121 49.5177 120.169 50.3328 119.145 50.3328H58.8551C57.8305 50.3328 57 49.5177 57 48.5123V44.8711C57 43.8656 57.8305 43.0505 58.8551 43.0505H119.145Z" fill="#B97942"/>
<path d="M66.1513 28.7701C66.8904 27.7433 68.4429 27.7433 69.1821 28.7701L73.356 34.5696C73.5769 34.8767 73.6956 35.2435 73.6957 35.6194V72.1794C73.6957 73.1849 72.8651 74 71.8406 74H63.4928C62.4682 74 61.6377 73.1849 61.6377 72.1794V35.6194C61.6377 35.2435 61.7564 34.8767 61.9774 34.5696L66.1513 28.7701Z" fill="#DCA363"/>
<path d="M87.4846 28.7701C88.2237 27.7433 89.7763 27.7433 90.5154 28.7701L94.6893 34.5696C94.9103 34.8767 95.0289 35.2435 95.029 35.6194V72.1794C95.029 73.1849 94.1984 74 93.1739 74H84.8261C83.8016 74 82.971 73.1849 82.971 72.1794V35.6194C82.9711 35.2435 83.0897 34.8767 83.3107 34.5696L87.4846 28.7701Z" fill="#DCA363"/>
<path d="M108.818 28.7701C109.557 27.7433 111.11 27.7433 111.849 28.7701L116.023 34.5696C116.244 34.8767 116.362 35.2435 116.362 35.6194V72.1794C116.362 73.1849 115.532 74 114.507 74H106.159C105.135 74 104.304 73.1849 104.304 72.1794V35.6194C104.304 35.2435 104.423 34.8767 104.644 34.5696L108.818 28.7701Z" fill="#DCA363"/>
<path d="M67.6667 60.346C68.6546 60.346 69.058 60.9573 69.058 61.7114C69.058 62.4656 68.6546 63.0769 67.6667 63.0769C66.6787 63.0769 66.2754 62.4656 66.2754 61.7114C66.2754 60.9573 66.6787 60.346 67.6667 60.346Z" fill="#B97942"/>
<path d="M89 60.346C89.9879 60.346 90.3913 60.9573 90.3913 61.7114C90.3913 62.4656 89.9879 63.0769 89 63.0769C88.0121 63.0769 87.6087 62.4656 87.6087 61.7114C87.6087 60.9573 88.0121 60.346 89 60.346Z" fill="#B97942"/>
<path d="M110.333 60.346C111.321 60.346 111.725 60.9573 111.725 61.7114C111.725 62.4656 111.321 63.0769 110.333 63.0769C109.345 63.0769 108.942 62.4656 108.942 61.7114C108.942 60.9573 109.345 60.346 110.333 60.346Z" fill="#B97942"/>
<path d="M67.6667 44.8711C68.6546 44.8711 69.058 45.4824 69.058 46.2365C69.058 46.9907 68.6546 47.602 67.6667 47.602C66.6787 47.602 66.2754 46.9907 66.2754 46.2365C66.2754 45.4824 66.6787 44.8711 67.6667 44.8711Z" fill="#B97942"/>
<path d="M89 44.8711C89.9879 44.8711 90.3913 45.4824 90.3913 46.2365C90.3913 46.9907 89.9879 47.602 89 47.602C88.0121 47.602 87.6087 46.9907 87.6087 46.2365C87.6087 45.4824 88.0121 44.8711 89 44.8711Z" fill="#B97942"/>
<path d="M110.333 44.8711C111.321 44.8711 111.725 45.4824 111.725 46.2365C111.725 46.9907 111.321 47.602 110.333 47.602C109.345 47.602 108.942 46.9907 108.942 46.2365C108.942 45.4824 109.345 44.8711 110.333 44.8711Z" fill="#B97942"/>
</svg>
