<svg width="178" height="100" viewBox="0 0 178 100" fill="none" xmlns="http://www.w3.org/2000/svg">
<rect width="178" height="100" fill="#FFEFE5"/>
<path d="M64.6343 29.9063C71.445 37.3585 88.7394 39.4516 96.5352 39.5666C97.5512 41.4575 98.8733 45.3975 96.0335 46.0303C92.4837 46.8213 76.2808 47.0565 67.4801 41.4354C58.6794 35.8142 63.1445 28.2761 64.6343 29.9063Z" fill="#93A3B3"/>
<path d="M94.5506 46.6001L95.4933 39.3866C95.6143 38.4621 97.2545 38.217 98.0539 38.401C106.814 40.4359 114.988 44.074 122.542 49.1081C124.874 50.661 125.631 53.476 124.449 55.8158C123.413 57.8671 120.402 59.2489 118.152 57.8392C111.368 53.5856 104.304 50.3233 96.5493 48.3933C95.6685 48.1752 94.431 47.4784 94.547 46.6L94.5506 46.6001Z" fill="#EE8248"/>
<path d="M84.431 16.9803C85.1529 15.6296 86.8213 15.1101 88.1784 15.8134C89.5354 16.5167 90.079 18.1825 89.3991 19.5549L65.8522 67.0899C64.9539 68.9033 62.7498 69.6273 60.9566 68.6981C59.1635 67.7688 58.4761 65.5463 59.4299 63.7616L84.431 16.9803Z" fill="#827370"/>
<path d="M60.8462 43.755C60.5987 42.6393 61.2748 41.527 62.3766 41.2371C63.4784 40.9471 64.6115 41.5833 64.9416 42.6772L68.8173 55.521C69.2478 56.9479 68.4112 58.4481 66.9741 58.8263C65.537 59.2044 64.0743 58.3093 63.7515 56.8542L60.8462 43.755Z" fill="#827370"/>
<path d="M87.5049 23.2315C84.2412 24.4097 82.3181 27.3804 83.2096 29.8668C84.1011 32.3532 87.4696 33.4138 90.7333 32.2356C93.997 31.0575 97.5616 27.4942 96.6701 25.0078C95.7786 22.5213 90.7686 22.0534 87.5049 23.2315Z" fill="#68D979"/>
<path d="M91.0398 26.3399C91.3777 26.2287 91.7424 26.4074 91.8628 26.7432C91.9832 27.0789 91.8155 27.4498 91.4844 27.5801L85.893 29.7804C85.4589 29.9512 84.9699 29.7287 84.812 29.2884C84.6542 28.8481 84.8898 28.364 85.3329 28.2182L91.0398 26.3399Z" fill="#38C25C"/>
<path d="M71.0818 24.1177C78.5089 30.9515 80.5949 48.3046 80.7095 56.1269C82.594 57.1463 86.5207 58.4729 87.1513 55.6234C87.9396 52.0616 88.1741 35.8037 82.572 26.9731C76.9698 18.1425 69.4572 22.6228 71.0818 24.1177Z" fill="#B1BAC3"/>
<path d="M87.4173 54.4384L80.3976 55.2143C79.498 55.3139 79.293 56.9203 79.4892 57.7095C81.6574 66.3585 85.378 74.4658 90.4479 81.9923C92.0119 84.3151 94.7747 85.1175 97.0334 84.0053C99.0136 83.0306 100.299 80.1008 98.8767 77.8603C94.5845 71.1072 91.2538 64.099 89.2089 56.4394C88.9777 55.5695 88.2719 54.3391 87.4172 54.4348L87.4173 54.4384Z" fill="#EE8248"/>
<path d="M77.3276 45.6432C79.2465 48.9781 82.5468 50.6709 86.82 48.1954C91.0932 45.7198 91.2823 42.0056 89.3635 38.6707C87.4446 35.3358 84.1443 33.6431 79.8711 36.1186C75.5978 38.5941 75.4087 42.3083 77.3276 45.6432Z" fill="#B1BAC3"/>
<path d="M80.0021 44.0941C81.0682 45.9468 82.9017 46.8872 85.2757 45.5119C87.6497 44.1366 87.7548 42.0732 86.6887 40.2205C85.6227 38.3677 83.7892 37.4273 81.4152 38.8026C79.0412 40.1779 78.9361 42.2414 80.0021 44.0941Z" fill="#93A3B3"/>
</svg>
