<svg width="178" height="100" viewBox="0 0 178 100" fill="none" xmlns="http://www.w3.org/2000/svg">
<rect width="178" height="100" fill="#F2FFE5"/>
<path d="M100.354 20.0549C104.832 18.129 107.821 19.0328 109.279 21.2131C110.543 23.1036 110.269 25.3739 107.455 27.4988C113.624 35.1252 119.448 50.8241 114.505 70.6397C116.764 72.1631 117.365 74.158 116.803 76.1349C115.982 79.0226 112.993 80.7761 107.302 79.3394C106.601 79.1624 105.961 78.9623 105.379 78.7429C101.762 79.8873 96.828 80.7788 90.2666 80.9619V81C89.8383 81 89.4158 80.9933 89 80.9877C88.5842 80.9933 88.1619 81 87.7335 81V80.9619C81.1715 80.7788 76.2369 79.8874 72.6197 78.7429C72.0386 78.9621 71.3998 79.1626 70.6994 79.3394C65.008 80.7765 62.0186 79.0228 61.1974 76.1349C60.6355 74.1587 61.2347 72.1641 63.4931 70.6409C58.5495 50.8251 64.3744 35.1254 70.5441 27.4988C67.7302 25.3739 67.4565 23.1036 68.7207 21.2131C70.1984 19.0038 73.247 18.1052 77.825 20.1334C78.7228 19.5184 79.9671 19.1547 81.6072 19.1545C83.2411 19.1545 84.4824 19.5161 85.3794 20.1267C86.2765 19.5159 87.5177 19.1546 89.1517 19.1545C90.7852 19.1546 92.0257 19.5162 92.9227 20.1267C93.8197 19.516 95.061 19.1546 96.6949 19.1545C98.262 19.1545 99.4666 19.4889 100.354 20.0549Z" fill="#C6EEC1"/>
<path d="M83.3551 47.8757C80.9921 51.9822 81.5957 56.7703 84.7031 58.5704C87.8105 60.3705 92.2452 58.5009 94.6081 54.3944C96.971 50.288 97.556 43.4344 94.4485 41.6344C91.3411 39.8343 85.718 43.7693 83.3551 47.8757Z" fill="#68D979"/>
<path d="M87.288 52.0533C87.5998 51.5454 88.2577 51.3785 88.7726 51.6768C89.2875 51.975 89.4724 52.6301 89.1899 53.155L84.4181 62.0198C84.0476 62.7081 83.1839 62.9536 82.5087 62.5625C81.8335 62.1713 81.6135 61.2981 82.0224 60.632L87.288 52.0533Z" fill="#38C25C"/>
<path d="M100.389 27.2472C101.181 27.1381 101.912 27.6947 102.021 28.4893C102.123 29.2344 101.643 29.9249 100.929 30.0986L100.783 30.1269H100.781L100.778 30.1279C100.774 30.1284 100.768 30.1289 100.762 30.1298C100.748 30.1317 100.726 30.1347 100.699 30.1383C100.646 30.1456 100.566 30.1561 100.465 30.1695C100.261 30.1964 99.9647 30.2343 99.5962 30.2802C98.8596 30.3719 97.8297 30.4947 96.6554 30.617C94.3201 30.8602 91.3615 31.1089 89.0001 31.1089C86.6386 31.1089 83.6801 30.8602 81.3448 30.617C80.1704 30.4947 79.1406 30.3719 78.4039 30.2802C78.0354 30.2343 77.7395 30.1964 77.5355 30.1695C77.4337 30.1561 77.3546 30.1456 77.3007 30.1383C77.2737 30.1347 77.2526 30.1317 77.2385 30.1298C77.2316 30.1288 77.2261 30.1284 77.2225 30.1279L77.2187 30.1269H77.2168C76.4245 30.0176 75.87 29.2843 75.9788 28.4893C76.088 27.6946 76.8188 27.138 77.6109 27.2472L77.6156 27.2481C77.6187 27.2486 77.6236 27.2492 77.6298 27.25C77.6425 27.2518 77.662 27.2542 77.6873 27.2576C77.7384 27.2645 77.8149 27.2749 77.9136 27.2879C78.1113 27.3139 78.3997 27.3518 78.7603 27.3967C79.4825 27.4866 80.4934 27.606 81.6446 27.7259C83.9608 27.9671 86.7956 28.2027 89.0001 28.2027C91.2046 28.2027 94.0394 27.9671 96.3555 27.7259C97.5067 27.606 98.5177 27.4866 99.2398 27.3967C99.6004 27.3518 99.8888 27.3139 100.087 27.2879C100.185 27.2749 100.262 27.2645 100.313 27.2576C100.338 27.2542 100.358 27.2518 100.37 27.25C100.376 27.2492 100.381 27.2486 100.384 27.2481L100.389 27.2472Z" fill="#A9DCB3"/>
</svg>
