<svg width="24" height="24" viewBox="0 0 24 24" fill="none" xmlns="http://www.w3.org/2000/svg">
<path d="M14 9C13.7167 9 13.4792 8.90417 13.2875 8.7125C13.0958 8.52083 13 8.28333 13 8C13 7.71667 13.0958 7.47917 13.2875 7.2875C13.4792 7.09583 13.7167 7 14 7H16V4C16 3.71667 16.0958 3.47917 16.2875 3.2875C16.4792 3.09583 16.7167 3 17 3C17.2833 3 17.5208 3.09583 17.7125 3.2875C17.9042 3.47917 18 3.71667 18 4V7H20C20.2833 7 20.5208 7.09583 20.7125 7.2875C20.9042 7.47917 21 7.71667 21 8C21 8.28333 20.9042 8.52083 20.7125 8.7125C20.5208 8.90417 20.2833 9 20 9H14ZM16.2875 20.7125C16.0958 20.5208 16 20.2833 16 20V12C16 11.7167 16.0958 11.4792 16.2875 11.2875C16.4792 11.0958 16.7167 11 17 11C17.2833 11 17.5208 11.0958 17.7125 11.2875C17.9042 11.4792 18 11.7167 18 12V20C18 20.2833 17.9042 20.5208 17.7125 20.7125C17.5208 20.9042 17.2833 21 17 21C16.7167 21 16.4792 20.9042 16.2875 20.7125ZM6.2875 20.7125C6.09583 20.5208 6 20.2833 6 20V17H4C3.71667 17 3.47917 16.9042 3.2875 16.7125C3.09583 16.5208 3 16.2833 3 16C3 15.7167 3.09583 15.4792 3.2875 15.2875C3.47917 15.0958 3.71667 15 4 15H10C10.2833 15 10.5208 15.0958 10.7125 15.2875C10.9042 15.4792 11 15.7167 11 16C11 16.2833 10.9042 16.5208 10.7125 16.7125C10.5208 16.9042 10.2833 17 10 17H8V20C8 20.2833 7.90417 20.5208 7.7125 20.7125C7.52083 20.9042 7.28333 21 7 21C6.71667 21 6.47917 20.9042 6.2875 20.7125ZM6.2875 12.7125C6.09583 12.5208 6 12.2833 6 12V4C6 3.71667 6.09583 3.47917 6.2875 3.2875C6.47917 3.09583 6.71667 3 7 3C7.28333 3 7.52083 3.09583 7.7125 3.2875C7.90417 3.47917 8 3.71667 8 4V12C8 12.2833 7.90417 12.5208 7.7125 12.7125C7.52083 12.9042 7.28333 13 7 13C6.71667 13 6.47917 12.9042 6.2875 12.7125Z" fill="#343434"/>
</svg>
