<svg width="24" height="24" viewBox="0 0 24 24" fill="none" xmlns="http://www.w3.org/2000/svg">
<path fill-rule="evenodd" clip-rule="evenodd" d="M12 12.5C16.4182 12.5 19.9999 13.7143 20 18.5713V19L19.9893 19.2041C19.887 20.2128 19.0357 21 18 21H6C4.89543 21 4 20.1046 4 19V18.5713C4.00007 13.7143 7.58176 12.5 12 12.5ZM12 14.2002C9.88116 14.2002 8.28003 14.5041 7.24805 15.1533C6.36857 15.7067 5.70023 16.635 5.7002 18.5713V19C5.7002 19.1657 5.83431 19.2998 6 19.2998H18C18.1657 19.2998 18.2998 19.1657 18.2998 19V18.5713C18.2998 16.635 17.6314 15.7067 16.752 15.1533C15.72 14.5041 14.1188 14.2002 12 14.2002Z" fill="#343434"/>
<path fill-rule="evenodd" clip-rule="evenodd" d="M14 3C15.1046 3 16 3.89543 16 5V7C16 9.20914 14.2091 11 12 11C9.79086 11 8 9.20914 8 7C8 4.79086 9.79086 3 12 3H14ZM12 4.7002C10.7297 4.7002 9.7002 5.72975 9.7002 7C9.7002 8.27025 10.7297 9.2998 12 9.2998C13.2703 9.2998 14.2998 8.27025 14.2998 7V5C14.2998 4.83431 14.1657 4.7002 14 4.7002H12Z" fill="#343434"/>
</svg>
