<svg width="178" height="100" viewBox="0 0 178 100" fill="none" xmlns="http://www.w3.org/2000/svg">
<rect width="178" height="100" fill="#FFFCE5"/>
<path d="M99.5201 17.2404C100.625 13.8273 103.451 14.4869 102.973 18.0464C101.773 26.997 99.6887 37.7105 96.3659 46.8013C95.2862 49.7551 92.769 49.1675 93.0709 46.0323C93.9999 36.3827 96.7426 25.8229 99.5201 17.2404Z" fill="#68D979"/>
<path d="M105.356 24.7181C107.53 21.8825 109.971 23.4697 108.339 26.6576C104.233 34.6737 98.7104 44.0474 92.5603 51.4698C90.5621 53.8814 88.3875 52.4675 89.7139 49.619C93.796 40.852 99.888 31.8483 105.356 24.7181Z" fill="#68D979"/>
<path d="M90.0779 26.5166C89.97 22.926 92.8484 22.5697 93.5951 26.0813C95.4726 34.9113 97.1116 45.7041 97.0408 55.3992C97.0178 58.5493 94.4538 58.8667 93.6846 55.8147C91.3171 46.4213 90.349 35.5455 90.0779 26.5166Z" fill="#68D979"/>
<path d="M106.752 32.892C109.981 31.4154 111.408 33.9756 108.496 36.0204C101.174 41.1623 91.973 46.8327 83.1164 50.4806C80.2388 51.6659 78.9675 49.3853 81.4523 47.4954C89.0999 41.6787 98.6336 36.6051 106.752 32.892Z" fill="#68D979"/>
<path d="M115.524 45.7517C116.656 48.3212 113.501 50.7655 110.523 52.7212L103.099 57.5936L113.414 52.5648C115.024 51.7809 116.563 52.0158 117.5 53.3985C118.306 54.5876 118.16 56.1695 116.898 57.3282C113.438 60.5095 109.292 62.4036 105.152 64.8723L113.138 61.908C114.406 61.4365 115.687 62.1381 116.226 63.2492C116.679 64.1836 116.606 65.6209 115.639 66.4992C113.556 68.3909 111.243 69.6951 108.704 70.9917C101.615 74.613 94.1457 76.8993 86.3064 78.1839C83.1902 78.6955 80.3295 79.1904 77.519 80.3857L77.5316 80.4174C77.8792 81.2928 77.4615 82.2884 76.5985 82.641L71.1297 84.8757C70.2667 85.2284 69.2844 84.8048 68.9366 83.9296L60.1224 61.7392C59.7747 60.8638 60.1932 59.8679 61.0563 59.5152L66.5251 57.2805C67.3388 56.948 68.2577 57.3056 68.6515 58.0812L68.6765 58.0638C69.765 57.2796 71.5711 56.8214 72.4421 55.4375C76.4277 49.1023 80.4491 42.8721 85.4759 37.3198C86.8248 35.8285 88.6801 35.555 90.1861 36.5069C93.9972 38.9166 89.2637 43.8381 88.6833 48.0138L105.333 38.4964C106.546 37.8036 107.917 37.9317 108.822 38.6287C109.781 39.3669 110.217 40.8256 109.657 42.0189C109.141 43.117 108.346 44.1186 107.384 44.8735L100.144 50.5674L109.645 45.2532C110.652 44.6903 111.625 44.1257 112.746 44.0849C114.041 44.0372 115.038 44.6499 115.524 45.7517Z" fill="#FFD56B"/>
<path d="M70.2857 56.6648C70.5405 56.5607 70.8301 56.6858 70.9328 56.9441L80.0049 79.784C80.1076 80.0424 79.9843 80.3362 79.7295 80.4403L78.3079 81.0212C78.0532 81.1253 77.7635 81.0002 77.6609 80.7419L68.5887 57.902C68.486 57.6436 68.6094 57.3498 68.8641 57.2457L70.2857 56.6648Z" fill="#E9B950"/>
</svg>
