<svg width="24" height="24" viewBox="0 0 24 24" fill="none" xmlns="http://www.w3.org/2000/svg">
<path fill-rule="evenodd" clip-rule="evenodd" d="M14.4565 2.00977C14.9116 2.05462 15.3404 2.25415 15.6684 2.57812L19.4057 6.26953C19.7984 6.65752 20.0134 7.19068 19.9994 7.74219L19.6879 20.0498C19.6604 21.1344 18.7625 21.9997 17.6645 22H6.42911C5.33112 21.9996 4.43311 21.1343 4.40567 20.0498L4.0004 4.0498C3.97384 2.99621 4.77673 2.11643 5.81485 2.01074L6.02481 2H14.2602L14.4565 2.00977ZM8.2504 16C7.83618 16 7.5004 16.3358 7.5004 16.75C7.5004 17.1642 7.83618 17.5 8.2504 17.5H13.2504C13.6645 17.4998 14.0004 17.1641 14.0004 16.75C14.0004 16.3359 13.6645 16.0002 13.2504 16H8.2504ZM8.2504 13C7.83618 13 7.5004 13.3358 7.5004 13.75C7.5004 14.1642 7.83618 14.5 8.2504 14.5H15.7504C16.1645 14.4998 16.5004 14.1641 16.5004 13.75C16.5004 13.3359 16.1645 13.0002 15.7504 13H8.2504ZM8.2504 10C7.83618 10 7.5004 10.3358 7.5004 10.75C7.5004 11.1642 7.83618 11.5 8.2504 11.5H15.7504C16.1645 11.4998 16.5004 11.1641 16.5004 10.75C16.5004 10.3359 16.1645 10.0002 15.7504 10H8.2504ZM14.2611 6.69141C14.2611 7.24369 14.7089 7.69141 15.2611 7.69141H17.9975L14.2611 4V6.69141Z" fill="#343434"/>
</svg>
