<svg width="24" height="24" viewBox="0 0 24 24" fill="none" xmlns="http://www.w3.org/2000/svg">
<path d="M5 21C4.45 21 3.97917 20.8042 3.5875 20.4125C3.19583 20.0208 3 19.55 3 19V5C3 4.45 3.19583 3.97917 3.5875 3.5875C3.97917 3.19583 4.45 3 5 3H15.175C15.4417 3 15.6958 3.05 15.9375 3.15C16.1792 3.25 16.3917 3.39167 16.575 3.575L20.425 7.425C20.6083 7.60833 20.75 7.82083 20.85 8.0625C20.95 8.30417 21 8.55833 21 8.825V19C21 19.55 20.8042 20.0208 20.4125 20.4125C20.0208 20.8042 19.55 21 19 21H5ZM15 5V8C15 8.28333 15.0958 8.52083 15.2875 8.7125C15.4792 8.90417 15.7167 9 16 9H19L15 5ZM16 17C16.2833 17 16.5208 16.9042 16.7125 16.7125C16.9042 16.5208 17 16.2833 17 16C17 15.7167 16.9042 15.4792 16.7125 15.2875C16.5208 15.0958 16.2833 15 16 15H8C7.71667 15 7.47917 15.0958 7.2875 15.2875C7.09583 15.4792 7 15.7167 7 16C7 16.2833 7.09583 16.5208 7.2875 16.7125C7.47917 16.9042 7.71667 17 8 17H16ZM11 9C11.2833 9 11.5208 8.90417 11.7125 8.7125C11.9042 8.52083 12 8.28333 12 8C12 7.71667 11.9042 7.47917 11.7125 7.2875C11.5208 7.09583 11.2833 7 11 7H8C7.71667 7 7.47917 7.09583 7.2875 7.2875C7.09583 7.47917 7 7.71667 7 8C7 8.28333 7.09583 8.52083 7.2875 8.7125C7.47917 8.90417 7.71667 9 8 9H11ZM16 13C16.2833 13 16.5208 12.9042 16.7125 12.7125C16.9042 12.5208 17 12.2833 17 12C17 11.7167 16.9042 11.4792 16.7125 11.2875C16.5208 11.0958 16.2833 11 16 11H8C7.71667 11 7.47917 11.0958 7.2875 11.2875C7.09583 11.4792 7 11.7167 7 12C7 12.2833 7.09583 12.5208 7.2875 12.7125C7.47917 12.9042 7.71667 13 8 13H16Z" fill="#343434"/>
</svg>
