<svg width="100" height="100" viewBox="0 0 100 100" fill="none" xmlns="http://www.w3.org/2000/svg">
<rect width="100" height="100" fill="#FFEFE5"/>
<path d="M25.6343 29.9063C32.445 37.3585 49.7394 39.4516 57.5352 39.5666C58.5512 41.4575 59.8733 45.3975 57.0335 46.0303C53.4837 46.8213 37.2808 47.0565 28.4801 41.4354C19.6794 35.8142 24.1445 28.2761 25.6343 29.9063Z" fill="#93A3B3"/>
<path d="M55.5506 46.6001L56.4933 39.3866C56.6143 38.4621 58.2545 38.217 59.0539 38.401C67.8139 40.4359 75.9885 44.074 83.5424 49.1081C85.8737 50.661 86.6307 53.476 85.449 55.8158C84.4135 57.8671 81.4022 59.2489 79.1516 57.8392C72.3683 53.5856 65.3045 50.3233 57.5493 48.3933C56.6685 48.1752 55.431 47.4784 55.547 46.6L55.5506 46.6001Z" fill="#EE8248"/>
<path d="M45.431 16.9803C46.1529 15.6296 47.8213 15.1101 49.1784 15.8134C50.5354 16.5167 51.079 18.1825 50.3991 19.5549L26.8522 67.0899C25.9539 68.9033 23.7498 69.6273 21.9566 68.6981C20.1635 67.7688 19.4761 65.5463 20.4299 63.7616L45.431 16.9803Z" fill="#827370"/>
<path d="M21.8462 43.755C21.5987 42.6393 22.2748 41.527 23.3766 41.2371C24.4784 40.9471 25.6115 41.5833 25.9416 42.6772L29.8173 55.521C30.2478 56.9479 29.4112 58.4481 27.9741 58.8263C26.537 59.2044 25.0743 58.3093 24.7515 56.8542L21.8462 43.755Z" fill="#827370"/>
<path d="M48.5049 23.2315C45.2412 24.4097 43.3181 27.3804 44.2096 29.8668C45.1011 32.3532 48.4696 33.4138 51.7333 32.2356C54.997 31.0575 58.5616 27.4942 57.6701 25.0078C56.7786 22.5213 51.7686 22.0534 48.5049 23.2315Z" fill="#68D979"/>
<path d="M52.0398 26.3399C52.3777 26.2287 52.7424 26.4074 52.8628 26.7432C52.9832 27.0789 52.8155 27.4498 52.4844 27.5801L46.893 29.7804C46.4589 29.9512 45.9699 29.7287 45.812 29.2884C45.6542 28.8481 45.8898 28.364 46.3329 28.2182L52.0398 26.3399Z" fill="#38C25C"/>
<path d="M32.0818 24.1177C39.5089 30.9515 41.5949 48.3046 41.7095 56.1269C43.594 57.1463 47.5207 58.4729 48.1513 55.6234C48.9396 52.0616 49.1741 35.8037 43.572 26.9731C37.9698 18.1425 30.4572 22.6228 32.0818 24.1177Z" fill="#B1BAC3"/>
<path d="M48.4173 54.4384L41.3976 55.2143C40.498 55.3139 40.293 56.9203 40.4892 57.7095C42.6574 66.3585 46.378 74.4658 51.4479 81.9923C53.0119 84.3151 55.7747 85.1175 58.0334 84.0053C60.0136 83.0306 61.2993 80.1008 59.8767 77.8603C55.5845 71.1072 52.2538 64.099 50.2089 56.4394C49.9777 55.5695 49.2719 54.3391 48.4172 54.4348L48.4173 54.4384Z" fill="#EE8248"/>
<path d="M38.3276 45.6432C40.2465 48.9781 43.5468 50.6709 47.82 48.1954C52.0932 45.7198 52.2823 42.0056 50.3635 38.6707C48.4446 35.3358 45.1443 33.6431 40.8711 36.1186C36.5978 38.5941 36.4087 42.3083 38.3276 45.6432Z" fill="#B1BAC3"/>
<path d="M41.0021 44.0941C42.0682 45.9468 43.9017 46.8872 46.2757 45.5119C48.6497 44.1366 48.7548 42.0732 47.6887 40.2205C46.6227 38.3677 44.7892 37.4273 42.4152 38.8026C40.0412 40.1779 39.9361 42.2414 41.0021 44.0941Z" fill="#93A3B3"/>
</svg>
