<svg width="178" height="100" viewBox="0 0 178 100" fill="none" xmlns="http://www.w3.org/2000/svg">
<rect width="178" height="100" fill="#F2FFE5"/>
<path d="M88.4754 20C95.7598 20 102.461 22.3207 107.356 26.8718C112.267 31.4387 115.23 38.1324 115.23 46.6109H112.082C112.082 38.8955 109.408 33.0662 105.206 29.1587C100.987 25.2356 95.0977 23.1307 88.4754 23.1307C81.8531 23.1307 75.9639 25.2356 71.7449 29.1587C67.5427 33.0662 64.8689 38.8955 64.8689 46.6109H61.7213C61.7213 38.1324 64.684 31.4387 69.5953 26.8718C74.4897 22.3207 81.191 20 88.4754 20Z" fill="#B97942"/>
<path d="M89 42.4367C106.673 42.4367 121 42.4367 121 51.8288C121 54.7183 119.642 56.7163 117.25 58.1014C116.703 64.3144 114.072 73.3418 105.475 77.2871C100.955 79.3617 92.9825 79.8522 89.4631 79.9683C89.407 79.9882 89.3471 80.0009 89.2838 79.9999C89.1365 79.9976 88.9601 79.9905 88.7582 79.9857C88.5565 79.9905 88.3808 79.9976 88.2336 79.9999C88.1701 80.0009 88.1096 79.9883 88.0533 79.9683C84.5338 79.8522 76.5627 79.3615 72.042 77.2871C63.2995 73.2751 60.727 64.0075 60.2418 57.7885C58.1663 56.4199 57 54.5071 57 51.8288C57 42.4367 71.3269 42.4367 89 42.4367Z" fill="#DCA363"/>
<path d="M92.7794 39.0808C93.3617 34.9418 96.0195 31.8908 101.37 32.6349C104.538 33.0758 106.431 34.5392 107.327 36.5187C107.945 36.4319 108.635 36.4341 109.397 36.5401C113.38 37.0944 114.655 39.82 114.222 42.9014C114.179 43.2077 114.119 43.5058 114.045 43.7941C115.177 45.3457 115.498 47.3706 115.194 49.5266C115.003 50.8883 114.584 52.1301 113.921 53.1597C112.962 53.8081 111.391 54.3807 109.028 54.8015C105.205 55.4825 100.164 55.6398 94.2774 55.6769C92.8666 54.0798 92.4474 51.8776 92.7794 49.5164C93.003 47.9275 93.5334 46.4991 94.4034 45.3839C92.8898 43.7772 92.4375 41.5121 92.7794 39.0808Z" fill="#68D979"/>
<path d="M103.418 46.4434C103.594 45.7168 104.32 45.2614 105.055 45.4161C105.79 45.5709 106.269 46.2798 106.134 47.0151L104.61 55.3371C103.534 55.4223 102.4 55.4871 101.211 55.5359L103.418 46.4434Z" fill="#38C25C"/>
<path d="M81.2862 29.1083C85.2234 28.4358 87.7518 29.8838 89.0905 32.3491C89.6021 32.2391 90.1742 32.1921 90.8098 32.2197C94.3388 32.3728 95.7124 34.6188 95.6346 37.3356C98.8171 38.7809 99.8291 41.7918 99.3621 45.1134C99.0516 47.3212 98.1496 49.2185 96.5649 50.3965C96.8984 52.0965 96.4902 53.9172 95.5608 55.6653C93.4818 55.6859 91.2891 55.6907 89.0004 55.6907C86.4652 55.6907 84.0475 55.6849 81.7719 55.6571C80.8064 53.9578 80.7827 52.0401 81.4328 50.1397C81.2011 50.1938 80.9621 50.2451 80.7145 50.2874C75.3898 51.1971 72.6391 48.2289 71.9276 44.1096C71.3873 40.9804 72.1795 38.0875 74.9256 36.4785C74.7705 32.9302 76.5597 29.9159 81.2862 29.1083Z" fill="#38C25C"/>
<path d="M69.3592 41.6796C70.0852 39.7312 71.7675 38.47 74.6287 38.8526C77.7765 39.2737 79.0183 41.2389 78.9811 43.5975C79.137 43.6182 79.2972 43.6435 79.4606 43.676C82.6887 44.3178 83.6544 46.5654 83.2209 49.0518C84.4783 50.3098 84.8635 52.1206 84.6 54.0709C84.5235 54.6365 84.3952 55.1759 84.2168 55.679C78.1183 55.6475 72.9007 55.5016 68.9709 54.8016C66.52 54.3649 64.919 53.7672 63.9719 53.0885C63.7476 52.9277 63.5532 52.7567 63.3879 52.5708C62.8913 50.9658 63.0594 49.3421 64.1983 47.943C64.0066 47.1829 64.0151 46.3415 64.1891 45.4757C64.6821 43.0228 66.3219 41.2602 69.3592 41.6796Z" fill="#68D979"/>
<path d="M72.0366 45.1068C72.6197 44.9084 73.2557 45.2074 73.472 45.7815L74.9587 49.7305L76.1196 47.9512C76.3823 47.5484 76.9174 47.4226 77.3337 47.6658C77.7497 47.9091 77.8995 48.4349 77.6739 48.8592L75.8911 52.2049L77.1257 55.4824C77.1342 55.5048 77.14 55.5281 77.1472 55.5506C76.086 55.5102 75.0668 55.4593 74.0929 55.3917L71.3173 46.5152C71.1345 45.9297 71.4534 45.3055 72.0366 45.1068Z" fill="#38C25C"/>
<path d="M110.042 64.9811C110.561 64.7253 111.191 64.9368 111.448 65.4529C111.706 65.9693 111.493 66.5962 110.974 66.8521C107.687 68.472 103.751 69.2942 100.22 69.7046C96.6761 70.1165 93.4663 70.1207 91.5919 70.0664C91.013 70.0494 90.5567 69.5691 90.5735 68.9933C90.5905 68.4174 91.0744 67.9637 91.6534 67.9803C93.4639 68.0328 96.5651 68.0281 99.9761 67.6318C103.4 67.2339 107.064 66.4484 110.042 64.9811Z" fill="#B97942"/>
<path d="M67.6606 63.2608C67.9762 62.7778 68.6267 62.6405 69.1124 62.9541C69.9674 63.5068 73.3542 64.873 79.0325 64.873C79.6118 64.873 80.0815 65.3404 80.0817 65.9166C80.0817 66.493 79.6119 66.9602 79.0325 66.9602C73.0898 66.9601 69.2663 65.5435 67.969 64.7049C67.4835 64.3908 67.3451 63.7439 67.6606 63.2608Z" fill="#B97942"/>
</svg>
