<svg width="24" height="24" viewBox="0 0 24 24" fill="none" xmlns="http://www.w3.org/2000/svg">
<path d="M6.5 20C4.98333 20 3.6875 19.475 2.6125 18.425C1.5375 17.375 1 16.0917 1 14.575C1 13.275 1.39167 12.1167 2.175 11.1C2.95833 10.0833 3.98333 9.43333 5.25 9.15C5.66667 7.61667 6.5 6.375 7.75 5.425C9 4.475 10.4167 4 12 4C13.95 4 15.6042 4.67917 16.9625 6.0375C18.3208 7.39583 19 9.05 19 11C20.15 11.1333 21.1042 11.6292 21.8625 12.4875C22.6208 13.3458 23 14.35 23 15.5C23 16.75 22.5625 17.8125 21.6875 18.6875C20.8125 19.5625 19.75 20 18.5 20H6.5Z" fill="#ACACAC"/>
</svg>
