<svg width="178" height="100" viewBox="0 0 178 100" fill="none" xmlns="http://www.w3.org/2000/svg">
<rect width="178" height="100" fill="#E5F4FF"/>
<path d="M80.7748 67.0119C79.8637 65.2143 79.5255 63.1821 79.8055 61.1876L82.6214 41.1298C82.9529 38.7681 84.4243 36.7182 86.5597 35.643C89.0545 34.3867 92.0499 34.6605 94.2739 36.3481L108.62 47.234C109.814 48.1403 110.786 49.305 111.463 50.6404L116.933 61.4329C119.401 66.3034 117.441 72.2463 112.555 74.7068L99.1908 81.4364C94.3045 83.8969 88.3423 81.9432 85.8738 77.0727L80.7748 67.0119Z" fill="#8ED0F3"/>
<path d="M75.1021 39.7975C75.0005 40.6967 74.2123 41.3604 73.306 41.3099C72.3996 41.2594 71.6905 40.5124 71.69 39.6075L71.6873 33.8157C71.6867 32.6484 72.6706 31.7205 73.8398 31.7857C75.0091 31.8508 75.8831 32.8821 75.7521 34.042L75.1021 39.7975Z" fill="#408DE5"/>
<path d="M62.498 34.9988L60.3201 30.7016C59.5796 29.2405 60.1676 27.4576 61.6335 26.7195L76.5589 19.2038C84.7145 15.097 93.9722 19.1664 98.1569 23.4744C99.2993 24.6504 98.7345 26.4445 97.2686 27.1826L82.2506 34.745C80.7847 35.4831 79.0099 34.7373 77.5329 34.0216C74.9552 32.7726 71.2673 33.9039 69.3325 34.8781L66.4931 36.3079C65.0272 37.046 63.2385 36.4599 62.498 34.9988Z" fill="#8ED0F3"/>
<path d="M79.0955 37.383C78.6828 36.5689 78.9144 35.6198 79.7031 35.1572C80.644 34.6054 82.217 33.7392 84.7976 32.4397C87.3783 31.1402 89.0112 30.3921 90.0151 29.9646C90.8566 29.6063 91.7604 29.9837 92.173 30.7978L93.335 33.0906C93.7917 33.9916 93.4853 35.0755 92.6007 35.5668C91.5926 36.1267 90.02 36.9684 87.688 38.1427C85.3561 39.3169 83.7432 40.0792 82.6929 40.5559C81.7712 40.9741 80.7141 40.5768 80.2575 39.6758L79.0955 37.383Z" fill="#408DE5"/>
<path d="M60.417 30.8934C59.6229 29.3265 60.2536 27.4144 61.8255 26.6229L63.1071 25.9776L67.8494 35.624L66.6853 36.2108C65.1133 37.0023 63.1951 36.3737 62.401 34.8068L60.417 30.8934Z" fill="#408DE5"/>
<path d="M75.1021 39.7975C75.0005 40.6967 74.2123 41.3604 73.306 41.3099C72.3996 41.2594 71.6905 40.5124 71.69 39.6075L71.6873 33.8157C71.6867 32.6484 72.6706 31.7205 73.8398 31.7857C75.0091 31.8508 75.8831 32.8821 75.7521 34.042L75.1021 39.7975Z" fill="#408DE5"/>
<path d="M62.498 34.9988L60.3201 30.7016C59.5796 29.2405 60.1676 27.4576 61.6335 26.7195L76.5589 19.2038C84.7145 15.097 93.9722 19.1664 98.1569 23.4744C99.2993 24.6504 98.7345 26.4445 97.2686 27.1826L82.2506 34.745C80.7847 35.4831 79.0099 34.7373 77.5329 34.0216C74.9552 32.7726 71.2673 33.9039 69.3325 34.8781L66.4931 36.3079C65.0272 37.046 63.2385 36.4599 62.498 34.9988Z" fill="#A5E0FF"/>
<path d="M79.0955 37.383C78.6828 36.5689 78.9144 35.6198 79.7031 35.1572C80.644 34.6054 82.217 33.7392 84.7976 32.4397C87.3783 31.1402 89.0112 30.3921 90.0151 29.9646C90.8566 29.6063 91.7604 29.9837 92.173 30.7978L93.335 33.0906C93.7917 33.9916 93.4853 35.0755 92.6007 35.5668C91.5926 36.1267 90.02 36.9684 87.688 38.1427C85.3561 39.3169 83.7432 40.0792 82.6929 40.5559C81.7712 40.9741 80.7141 40.5768 80.2575 39.6758L79.0955 37.383Z" fill="#408DE5"/>
<path d="M60.417 30.8934C59.6229 29.3265 60.2536 27.4144 61.8255 26.6229L63.1071 25.9776L67.8494 35.624L66.6853 36.2108C65.1133 37.0023 63.1951 36.3737 62.401 34.8068L60.417 30.8934Z" fill="#408DE5"/>
</svg>
