<svg width="100" height="100" viewBox="0 0 100 100" fill="none" xmlns="http://www.w3.org/2000/svg">
<rect width="100" height="100" fill="#FFEFE5"/>
<path d="M80.1449 57.6151C81.1695 57.6151 82 58.4302 82 59.4357V63.0769C82 64.0824 81.1695 64.8975 80.1449 64.8975H19.8551C18.8305 64.8975 18 64.0824 18 63.0769V59.4357C18 58.4302 18.8305 57.6151 19.8551 57.6151H80.1449Z" fill="#B97942"/>
<path d="M80.1449 43.0505C81.1695 43.0505 82 43.8656 82 44.8711V48.5123C82 49.5177 81.1695 50.3328 80.1449 50.3328H19.8551C18.8305 50.3328 18 49.5177 18 48.5123V44.8711C18 43.8656 18.8305 43.0505 19.8551 43.0505H80.1449Z" fill="#B97942"/>
<path d="M27.1513 28.7701C27.8904 27.7433 29.4429 27.7433 30.1821 28.7701L34.356 34.5696C34.5769 34.8767 34.6956 35.2435 34.6957 35.6194V72.1794C34.6957 73.1849 33.8651 74 32.8406 74H24.4928C23.4682 74 22.6377 73.1849 22.6377 72.1794V35.6194C22.6377 35.2435 22.7564 34.8767 22.9774 34.5696L27.1513 28.7701Z" fill="#DCA363"/>
<path d="M48.4846 28.7701C49.2237 27.7433 50.7763 27.7433 51.5154 28.7701L55.6893 34.5696C55.9103 34.8767 56.0289 35.2435 56.029 35.6194V72.1794C56.029 73.1849 55.1984 74 54.1739 74H45.8261C44.8016 74 43.971 73.1849 43.971 72.1794V35.6194C43.9711 35.2435 44.0897 34.8767 44.3107 34.5696L48.4846 28.7701Z" fill="#DCA363"/>
<path d="M69.8179 28.7701C70.5571 27.7433 72.1096 27.7433 72.8487 28.7701L77.0226 34.5696C77.2436 34.8767 77.3623 35.2435 77.3623 35.6194V72.1794C77.3623 73.1849 76.5318 74 75.5072 74H67.1594C66.1349 74 65.3043 73.1849 65.3043 72.1794V35.6194C65.3044 35.2435 65.4231 34.8767 65.644 34.5696L69.8179 28.7701Z" fill="#DCA363"/>
<path d="M28.6667 60.346C29.6546 60.346 30.058 60.9573 30.058 61.7114C30.058 62.4656 29.6546 63.0769 28.6667 63.0769C27.6787 63.0769 27.2754 62.4656 27.2754 61.7114C27.2754 60.9573 27.6787 60.346 28.6667 60.346Z" fill="#B97942"/>
<path d="M50 60.346C50.9879 60.346 51.3913 60.9573 51.3913 61.7114C51.3913 62.4656 50.9879 63.0769 50 63.0769C49.0121 63.0769 48.6087 62.4656 48.6087 61.7114C48.6087 60.9573 49.0121 60.346 50 60.346Z" fill="#B97942"/>
<path d="M71.3333 60.346C72.3213 60.346 72.7246 60.9573 72.7246 61.7114C72.7246 62.4656 72.3213 63.0769 71.3333 63.0769C70.3454 63.0769 69.942 62.4656 69.942 61.7114C69.942 60.9573 70.3454 60.346 71.3333 60.346Z" fill="#B97942"/>
<path d="M28.6667 44.8711C29.6546 44.8711 30.058 45.4824 30.058 46.2365C30.058 46.9907 29.6546 47.602 28.6667 47.602C27.6787 47.602 27.2754 46.9907 27.2754 46.2365C27.2754 45.4824 27.6787 44.8711 28.6667 44.8711Z" fill="#B97942"/>
<path d="M50 44.8711C50.9879 44.8711 51.3913 45.4824 51.3913 46.2365C51.3913 46.9907 50.9879 47.602 50 47.602C49.0121 47.602 48.6087 46.9907 48.6087 46.2365C48.6087 45.4824 49.0121 44.8711 50 44.8711Z" fill="#B97942"/>
<path d="M71.3333 44.8711C72.3213 44.8711 72.7246 45.4824 72.7246 46.2365C72.7246 46.9907 72.3213 47.602 71.3333 47.602C70.3454 47.602 69.942 46.9907 69.942 46.2365C69.942 45.4824 70.3454 44.8711 71.3333 44.8711Z" fill="#B97942"/>
</svg>
