<svg width="100" height="100" viewBox="0 0 100 100" fill="none" xmlns="http://www.w3.org/2000/svg">
<rect width="100" height="100" fill="#FFFCE5"/>
<path d="M47.9259 50.9059C53.1575 50.9059 57.6339 51.9534 59.4741 54.8438C70.6395 56.7693 76.963 61.7806 76.963 67.4235C76.963 69.6324 75.3679 71.3131 72.6153 72.5641C71.7375 75.796 66.8122 77.3186 60.7937 77.8388C55.5065 78.2958 50.9192 77.8438 48.9164 75.6713C33.9547 75.5756 22 73.4723 22 67.4235C22 62.4018 27.008 57.8805 35.9797 55.5888C37.4906 52.1308 42.267 50.9059 47.9259 50.9059Z" fill="url(#paint0_linear_1818_8701)"/>
<path d="M58.2963 39.55L52.6868 44.9104L52.9815 51.9413C53.0519 53.6288 51.6967 55.0353 50 55.0353C48.3033 55.0353 46.9481 53.6288 47.0185 51.9413L47.3122 44.9104L41.7037 39.55L44.9434 36.4529L47.5613 38.9552L47.5694 38.7737C47.6237 37.4767 48.6959 36.4529 50 36.4529C51.3041 36.4529 52.3763 37.4767 52.4306 38.7737L52.4376 38.9542L55.0566 36.4529L58.2963 39.55Z" fill="#38C25C"/>
<path d="M57.4608 25.1927C63.9056 21.4728 74.5952 20.4344 77.3372 25.1825C80.079 29.9306 73.8355 38.667 67.3908 42.3869C60.9461 46.1068 53.4973 45.2735 50.7552 40.5255C50.4166 39.9391 50.1667 39.3196 49.999 38.6785C49.8312 39.3194 49.5834 39.9392 49.2448 40.5255C46.5027 45.2736 39.054 46.1068 32.6092 42.3869C26.1645 38.667 19.921 29.9306 22.6628 25.1825C25.4049 20.4344 36.0944 21.4728 42.5392 25.1927C46.5242 27.4929 49.1907 30.9955 49.999 34.4565C50.8071 30.9953 53.4756 27.493 57.4608 25.1927Z" fill="#68D979"/>
<path d="M44.2968 68.4555C46.1371 68.4557 46.8892 69.1491 46.8894 70.0041C46.8894 70.8592 46.1374 71.5525 44.2968 71.5526C42.4559 71.5526 41.7042 70.8593 41.7042 70.0041C41.7044 69.149 42.4561 68.4555 44.2968 68.4555Z" fill="#9B6537"/>
<path d="M30.6644 64.432C32.4481 63.9562 33.3578 64.4332 33.5811 65.2617C33.8041 66.0904 33.2564 66.9574 31.4726 67.4333C29.6887 67.9091 28.779 67.4313 28.5559 66.6025C28.3329 65.7738 28.8806 64.9078 30.6644 64.432Z" fill="#9B6537"/>
<path d="M64.0005 62.2614C65.8408 62.2615 66.5929 62.955 66.5931 63.8099C66.5931 64.6651 65.8411 65.3583 64.0005 65.3585C62.1596 65.3585 61.4079 64.6652 61.4079 63.8099C61.4081 62.9549 62.1598 62.2614 64.0005 62.2614Z" fill="#9B6537"/>
<path d="M53.8398 58.63C54.0628 57.8013 54.9725 57.3235 56.7564 57.7993C58.5403 58.2751 59.0879 59.1412 58.8649 59.9699C58.6419 60.7986 57.7322 61.2764 55.9483 60.8006C54.1649 60.3248 53.617 59.4586 53.8398 58.63Z" fill="#9B6537"/>
<path d="M32.0534 29.476C32.379 28.9147 33.0949 28.7135 33.6667 29.0233L44.9779 35.1549C45.7292 35.5621 45.9959 36.5053 45.5683 37.2428C45.1406 37.9803 44.1868 38.2222 43.4568 37.7782L32.4666 31.0921C31.9115 30.754 31.7283 30.0371 32.0534 29.476Z" fill="#38C25C"/>
<path d="M66.3334 29.0233C66.9052 28.7134 67.6211 28.9147 67.9467 29.476C68.272 30.0372 68.0888 30.7541 67.5335 31.0921L56.5433 37.7782C55.8134 38.2221 54.8595 37.9803 54.4318 37.2428C54.0043 36.5054 54.271 35.5621 55.0222 35.1549L66.3334 29.0233Z" fill="#38C25C"/>
<defs>
<linearGradient id="paint0_linear_1818_8701" x1="50" y1="22" x2="50" y2="78" gradientUnits="userSpaceOnUse">
<stop stop-color="#AC784C"/>
<stop offset="1" stop-color="#BA8659"/>
</linearGradient>
</defs>
</svg>
