<svg width="24" height="24" viewBox="0 0 24 24" fill="none" xmlns="http://www.w3.org/2000/svg">
<path d="M11.2875 20.2C11.0458 20.1167 10.8333 19.9833 10.65 19.8L8.925 18.225C7.15833 16.6083 5.5625 15.0042 4.1375 13.4125C2.7125 11.8208 2 10.0667 2 8.14999C2 6.58333 2.525 5.27499 3.575 4.22499C4.625 3.17499 5.93333 2.64999 7.5 2.64999C8.38333 2.64999 9.21667 2.83749 10 3.21249C10.7833 3.58749 11.45 4.09999 12 4.74999C12.55 4.09999 13.2167 3.58749 14 3.21249C14.7833 2.83749 15.6167 2.64999 16.5 2.64999C18.0667 2.64999 19.375 3.17499 20.425 4.22499C21.475 5.27499 22 6.58333 22 8.14999C22 10.0667 21.2917 11.825 19.875 13.425C18.4583 15.025 16.85 16.6333 15.05 18.25L13.35 19.8C13.1667 19.9833 12.9542 20.1167 12.7125 20.2C12.4708 20.2833 12.2333 20.325 12 20.325C11.7667 20.325 11.5292 20.2833 11.2875 20.2Z" fill="#343434"/>
</svg>
