<svg width="100" height="100" viewBox="0 0 100 100" fill="none" xmlns="http://www.w3.org/2000/svg">
<rect width="100" height="100" fill="#FFFCE5"/>
<path d="M60.5201 17.2404C61.6247 13.8273 64.4506 14.4869 63.9732 18.0464C62.7727 26.997 60.6887 37.7105 57.3659 46.8013C56.2862 49.7551 53.769 49.1675 54.0709 46.0323C54.9999 36.3827 57.7426 25.8229 60.5201 17.2404Z" fill="#68D979"/>
<path d="M66.3557 24.7181C68.5301 21.8825 70.9713 23.4697 69.3387 26.6576C65.2334 34.6737 59.7104 44.0474 53.5603 51.4698C51.5621 53.8814 49.3875 52.4675 50.7139 49.619C54.796 40.852 60.888 31.8483 66.3557 24.7181Z" fill="#68D979"/>
<path d="M51.0779 26.5166C50.97 22.926 53.8484 22.5697 54.5951 26.0813C56.4726 34.9113 58.1116 45.7041 58.0408 55.3992C58.0178 58.5493 55.4538 58.8667 54.6846 55.8147C52.3171 46.4213 51.349 35.5455 51.0779 26.5166Z" fill="#68D979"/>
<path d="M67.7524 32.892C70.9811 31.4154 72.4083 33.9756 69.4963 36.0204C62.1741 41.1623 52.973 46.8327 44.1164 50.4806C41.2388 51.6659 39.9675 49.3853 42.4523 47.4954C50.0999 41.6787 59.6336 36.6051 67.7524 32.892Z" fill="#68D979"/>
<path d="M76.5244 45.7517C77.6564 48.3212 74.5011 50.7655 71.5235 52.7212L64.0993 57.5936L74.4138 52.5648C76.0237 51.7809 77.5627 52.0158 78.5001 53.3985C79.3059 54.5876 79.1601 56.1695 77.8979 57.3282C74.4377 60.5095 70.2924 62.4036 66.1524 64.8723L74.1375 61.908C75.4063 61.4365 76.6874 62.1381 77.2263 63.2492C77.6794 64.1836 77.6057 65.6209 76.6388 66.4992C74.5561 68.3909 72.2432 69.6951 69.7041 70.9917C62.6154 74.613 55.1457 76.8993 47.3064 78.1839C44.1902 78.6955 41.3295 79.1904 38.519 80.3857L38.5316 80.4174C38.8792 81.2928 38.4615 82.2884 37.5985 82.641L32.1297 84.8757C31.2667 85.2284 30.2844 84.8048 29.9366 83.9296L21.1224 61.7392C20.7747 60.8638 21.1932 59.8679 22.0563 59.5152L27.5251 57.2805C28.3388 56.948 29.2577 57.3056 29.6515 58.0812L29.6765 58.0638C30.765 57.2796 32.5711 56.8214 33.4421 55.4375C37.4277 49.1023 41.4491 42.8721 46.4759 37.3198C47.8248 35.8285 49.6801 35.555 51.1861 36.5069C54.9972 38.9166 50.2637 43.8381 49.6833 48.0138L66.3327 38.4964C67.5462 37.8036 68.9171 37.9317 69.8219 38.6287C70.7812 39.3669 71.2174 40.8256 70.6568 42.0189C70.1406 43.117 69.3458 44.1186 68.3841 44.8735L61.1444 50.5674L70.6449 45.2532C71.6518 44.6903 72.6248 44.1257 73.7461 44.0849C75.0413 44.0372 76.0377 44.6499 76.5244 45.7517Z" fill="#FFD56B"/>
<path d="M31.2857 56.6648C31.5405 56.5607 31.8301 56.6858 31.9328 56.9441L41.0049 79.784C41.1076 80.0424 40.9843 80.3362 40.7295 80.4403L39.3079 81.0212C39.0532 81.1253 38.7635 81.0002 38.6609 80.7419L29.5887 57.902C29.486 57.6436 29.6094 57.3498 29.8641 57.2457L31.2857 56.6648Z" fill="#E9B950"/>
</svg>
