<svg width="178" height="100" viewBox="0 0 178 100" fill="none" xmlns="http://www.w3.org/2000/svg">
<rect width="178" height="100" fill="#EDFFFB"/>
<path d="M102.842 30.0048C107.917 26.0581 115.333 27.1637 119.406 32.4732C123.478 37.7826 122.667 45.2866 117.594 49.2336L114.08 44.6554C116.738 42.588 117.163 38.6568 115.03 35.8756C112.896 33.0947 109.011 32.5164 106.353 34.5839L102.842 30.0048Z" fill="#40E5E5"/>
<path d="M58.6949 47.9354C59.2093 46.0249 61.7841 45.6802 62.7868 47.3881L64.8137 50.839C64.8391 50.8416 64.8647 50.8434 64.8903 50.8469L85.002 53.5703C86.3373 53.7511 87.2099 55.0562 86.8613 56.3516L84.7018 64.3723C84.3528 65.6675 82.9413 66.3636 81.6942 65.8558L62.9085 58.2071C62.8847 58.1973 62.8616 58.1862 62.8382 58.1758L59.3491 60.1558C57.6227 61.1359 55.566 59.5563 56.0804 57.6457L58.6949 47.9354Z" fill="#40E5E5"/>
<path d="M71.5766 46.1033C70.3392 43.2426 70.9007 39.9448 73.3201 37.9693C75.6383 36.0766 79.0758 33.5689 83.7707 30.8714C88.4655 28.1739 92.3666 26.4652 95.1727 25.4136C98.1015 24.3162 101.252 25.4812 103.123 27.978L120.319 50.9289C121.756 52.8466 122.196 55.3164 120.797 57.2618C118.786 60.0595 114.606 64.3898 106.064 69.2976C97.5219 74.2055 91.6633 75.6431 88.2231 75.9777C85.8308 76.2103 83.9014 74.5964 82.951 72.3993L71.5766 46.1033Z" fill="#8EF3F3"/>
<path d="M98.5065 28.8924C99.5652 30.7172 94.4866 34.1218 87.9606 37.8714C81.4347 41.621 75.9326 44.2956 74.8739 42.4708C73.8152 40.646 78.8938 37.2414 85.4198 33.4918C91.9458 29.7422 97.4479 27.0676 98.5065 28.8924Z" fill="#00CED5"/>
<path d="M60.4318 49.0528C61.0896 49.1962 60.7267 51.0094 60.1167 53.2106C59.5066 55.4119 58.8806 57.1677 58.2228 57.0243C57.5649 56.881 57.9279 55.0678 58.5379 52.8665C59.1479 50.6653 59.774 48.9095 60.4318 49.0528Z" fill="#00CED5"/>
</svg>
