<svg width="24" height="24" viewBox="0 0 24 24" fill="none" xmlns="http://www.w3.org/2000/svg">
<path d="M7.5 16C5.98333 16 4.6875 15.4625 3.6125 14.3875C2.5375 13.3125 2 12.0167 2 10.5C2 9.11667 2.45833 7.90833 3.375 6.875C4.29167 5.84167 5.425 5.23333 6.775 5.05C7.30833 4.1 8.0375 3.35417 8.9625 2.8125C9.8875 2.27083 10.9 2 12 2C13.5 2 14.8042 2.47917 15.9125 3.4375C17.0208 4.39583 17.6917 5.59167 17.925 7.025C19.075 7.125 20.0417 7.6 20.825 8.45C21.6083 9.3 22 10.3167 22 11.5C22 12.75 21.5625 13.8125 20.6875 14.6875C19.8125 15.5625 18.75 16 17.5 16H7.5Z" fill="#ACACAC"/>
<path d="M13.1875 21.9625C13.4458 22.0541 13.7 22.0333 13.95 21.9C14.2 21.7666 14.3708 21.5708 14.4625 21.3125C14.5541 21.0541 14.5333 20.8 14.4 20.55L12.9 17.55C12.7666 17.3 12.5708 17.1291 12.3125 17.0375C12.0541 16.9458 11.8 16.9666 11.55 17.1C11.3 17.2333 11.1291 17.4291 11.0375 17.6875C10.9458 17.9458 10.9666 18.2 11.1 18.45L12.6 21.45C12.7333 21.7 12.9291 21.8708 13.1875 21.9625Z" fill="#7FC0E1"/>
<path d="M19.1875 21.9625C19.4458 22.0541 19.7 22.0333 19.95 21.9C20.2 21.7666 20.3708 21.5708 20.4625 21.3125C20.5541 21.0541 20.5333 20.8 20.4 20.55L18.9 17.55C18.7666 17.3 18.5708 17.1291 18.3125 17.0375C18.0541 16.9458 17.8 16.9666 17.55 17.1C17.3 17.2333 17.1291 17.4291 17.0375 17.6875C16.9458 17.9458 16.9666 18.2 17.1 18.45L18.6 21.45C18.7333 21.7 18.9291 21.8708 19.1875 21.9625Z" fill="#7FC0E1"/>
<path d="M7.18746 21.9625C7.4458 22.0541 7.69996 22.0333 7.94996 21.9C8.19996 21.7666 8.3708 21.5708 8.46246 21.3125C8.55413 21.0541 8.5333 20.8 8.39996 20.55L6.89996 17.55C6.76663 17.3 6.5708 17.1291 6.31246 17.0375C6.05413 16.9458 5.79996 16.9666 5.54996 17.1C5.29996 17.2333 5.12913 17.4291 5.03746 17.6875C4.9458 17.9458 4.96663 18.2 5.09996 18.45L6.59996 21.45C6.7333 21.7 6.92913 21.8708 7.18746 21.9625Z" fill="#7FC0E1"/>
</svg>
