<svg width="100" height="100" viewBox="0 0 100 100" fill="none" xmlns="http://www.w3.org/2000/svg">
<rect width="100" height="100" fill="#F2FFE5"/>
<path d="M61.354 20.0549C65.8322 18.129 68.8211 19.0328 70.2793 21.2131C71.5435 23.1036 71.2689 25.3739 68.4548 27.4988C74.6244 35.1252 80.4478 50.8241 75.5045 70.6397C77.7644 72.1631 78.3648 74.158 77.8027 76.1349C76.9815 79.0226 73.9928 80.7761 68.3019 79.3394C67.6008 79.1624 66.9607 78.9623 66.3791 78.7429C62.762 79.8873 57.828 80.7788 51.2666 80.9619V81C50.8383 81 50.4158 80.9933 50 80.9877C49.5842 80.9933 49.1619 81 48.7335 81V80.9619C42.1715 80.7788 37.2369 79.8874 33.6197 78.7429C33.0386 78.9621 32.3998 79.1626 31.6994 79.3394C26.008 80.7765 23.0186 79.0228 22.1974 76.1349C21.6355 74.1587 22.2347 72.1641 24.4931 70.6409C19.5495 50.8251 25.3744 35.1254 31.5441 27.4988C28.7302 25.3739 28.4565 23.1036 29.7207 21.2131C31.1984 19.0038 34.247 18.1052 38.825 20.1334C39.7228 19.5184 40.9671 19.1547 42.6072 19.1545C44.2411 19.1545 45.4824 19.5161 46.3794 20.1267C47.2765 19.5159 48.5177 19.1546 50.1517 19.1545C51.7852 19.1546 53.0257 19.5162 53.9227 20.1267C54.8197 19.516 56.061 19.1546 57.6949 19.1545C59.262 19.1545 60.4666 19.4889 61.354 20.0549Z" fill="#C6EEC1"/>
<path d="M44.3551 47.8757C41.9921 51.9822 42.5957 56.7703 45.7031 58.5704C48.8105 60.3705 53.2452 58.5009 55.6081 54.3944C57.971 50.288 58.556 43.4344 55.4485 41.6344C52.3411 39.8343 46.718 43.7693 44.3551 47.8757Z" fill="#68D979"/>
<path d="M48.288 52.0533C48.5998 51.5454 49.2577 51.3785 49.7726 51.6768C50.2875 51.975 50.4724 52.6301 50.1899 53.155L45.4181 62.0198C45.0476 62.7081 44.1839 62.9536 43.5087 62.5625C42.8335 62.1713 42.6135 61.2981 43.0224 60.632L48.288 52.0533Z" fill="#38C25C"/>
<path d="M61.3892 27.2472C62.1813 27.1381 62.9122 27.6947 63.0214 28.4893C63.1233 29.2344 62.6425 29.9249 61.9295 30.0986L61.7833 30.1269H61.7815L61.7777 30.1279C61.774 30.1284 61.7685 30.1289 61.7617 30.1298C61.7476 30.1317 61.7263 30.1347 61.6994 30.1383C61.6455 30.1456 61.5664 30.1561 61.4646 30.1695C61.2607 30.1964 60.9647 30.2343 60.5962 30.2802C59.8596 30.3719 58.8297 30.4947 57.6554 30.617C55.3201 30.8602 52.3615 31.1089 50.0001 31.1089C47.6386 31.1089 44.6801 30.8602 42.3448 30.617C41.1704 30.4947 40.1406 30.3719 39.4039 30.2802C39.0354 30.2343 38.7395 30.1964 38.5355 30.1695C38.4337 30.1561 38.3546 30.1456 38.3007 30.1383C38.2737 30.1347 38.2526 30.1317 38.2385 30.1298C38.2316 30.1288 38.2261 30.1284 38.2225 30.1279L38.2187 30.1269H38.2168C37.4245 30.0176 36.87 29.2843 36.9788 28.4893C37.088 27.6946 37.8188 27.138 38.6109 27.2472L38.6156 27.2481C38.6187 27.2486 38.6236 27.2492 38.6298 27.25C38.6425 27.2518 38.662 27.2542 38.6873 27.2576C38.7384 27.2645 38.8149 27.2749 38.9136 27.2879C39.1113 27.3139 39.3997 27.3518 39.7603 27.3967C40.4825 27.4866 41.4934 27.606 42.6446 27.7259C44.9608 27.9671 47.7956 28.2027 50.0001 28.2027C52.2046 28.2027 55.0394 27.9671 57.3555 27.7259C58.5067 27.606 59.5177 27.4866 60.2398 27.3967C60.6004 27.3518 60.8888 27.3139 61.0865 27.2879C61.1852 27.2749 61.2618 27.2645 61.3128 27.2576C61.3381 27.2542 61.3576 27.2518 61.3704 27.25C61.3764 27.2492 61.3815 27.2486 61.3845 27.2481L61.3892 27.2472Z" fill="#A9DCB3"/>
</svg>
