<svg width="178" height="100" viewBox="0 0 178 100" fill="none" xmlns="http://www.w3.org/2000/svg">
<rect width="178" height="100" fill="#FFFCE5"/>
<path d="M86.9259 50.9059C92.1575 50.9059 96.6339 51.9534 98.4741 54.8438C109.64 56.7693 115.963 61.7806 115.963 67.4235C115.963 69.6324 114.368 71.3131 111.615 72.5641C110.737 75.796 105.812 77.3186 99.7937 77.8388C94.5065 78.2958 89.9192 77.8438 87.9164 75.6713C72.9547 75.5756 61 73.4723 61 67.4235C61 62.4018 66.008 57.8805 74.9797 55.5888C76.4906 52.1308 81.267 50.9059 86.9259 50.9059Z" fill="#BA8659"/>
<path d="M97.2963 39.55L91.6868 44.9104L91.9815 51.9413C92.0519 53.6288 90.6968 55.0353 89 55.0353C87.3033 55.0353 85.9481 53.6288 86.0185 51.9413L86.3122 44.9104L80.7037 39.55L83.9434 36.4529L86.5613 38.9552L86.5694 38.7737C86.6237 37.4767 87.6959 36.4529 89 36.4529C90.3041 36.4529 91.3763 37.4767 91.4306 38.7737L91.4376 38.9542L94.0566 36.4529L97.2963 39.55Z" fill="#38C25C"/>
<path d="M96.4608 25.1927C102.906 21.4728 113.595 20.4344 116.337 25.1825C119.079 29.9306 112.835 38.667 106.391 42.3869C99.9461 46.1068 92.4973 45.2735 89.7552 40.5255C89.4166 39.9391 89.1667 39.3196 88.999 38.6785C88.8312 39.3194 88.5834 39.9392 88.2448 40.5255C85.5027 45.2736 78.054 46.1068 71.6092 42.3869C65.1645 38.667 58.921 29.9306 61.6628 25.1825C64.4049 20.4344 75.0944 21.4728 81.5392 25.1927C85.5242 27.4929 88.1907 30.9955 88.999 34.4565C89.8071 30.9953 92.4756 27.493 96.4608 25.1927Z" fill="#68D979"/>
<path d="M83.2968 68.4555C85.1371 68.4557 85.8892 69.1491 85.8894 70.0041C85.8894 70.8592 85.1374 71.5525 83.2968 71.5526C81.4559 71.5526 80.7042 70.8593 80.7042 70.0041C80.7044 69.149 81.4561 68.4555 83.2968 68.4555Z" fill="#9B6537"/>
<path d="M69.6644 64.432C71.4481 63.9562 72.3578 64.4332 72.5811 65.2617C72.8041 66.0904 72.2564 66.9574 70.4726 67.4333C68.6887 67.9091 67.779 67.4313 67.5559 66.6025C67.3329 65.7738 67.8806 64.9078 69.6644 64.432Z" fill="#9B6537"/>
<path d="M103.001 62.2614C104.841 62.2615 105.593 62.955 105.593 63.8099C105.593 64.6651 104.841 65.3583 103.001 65.3585C101.16 65.3585 100.408 64.6652 100.408 63.8099C100.408 62.9549 101.16 62.2614 103.001 62.2614Z" fill="#9B6537"/>
<path d="M92.8398 58.63C93.0628 57.8013 93.9725 57.3235 95.7564 57.7993C97.5403 58.2751 98.0879 59.1412 97.8649 59.9699C97.6419 60.7986 96.7322 61.2764 94.9483 60.8006C93.1649 60.3248 92.617 59.4586 92.8398 58.63Z" fill="#9B6537"/>
<path d="M71.0534 29.476C71.379 28.9147 72.0949 28.7135 72.6667 29.0233L83.9779 35.1549C84.7292 35.5621 84.9959 36.5053 84.5684 37.2428C84.1406 37.9803 83.1868 38.2222 82.4568 37.7782L71.4666 31.0921C70.9115 30.754 70.7283 30.0371 71.0534 29.476Z" fill="#38C25C"/>
<path d="M105.333 29.0233C105.905 28.7134 106.621 28.9147 106.947 29.476C107.272 30.0372 107.089 30.7541 106.533 31.0921L95.5433 37.7782C94.8134 38.2221 93.8595 37.9803 93.4318 37.2428C93.0043 36.5054 93.271 35.5621 94.0222 35.1549L105.333 29.0233Z" fill="#38C25C"/>
</svg>
