<svg width="24" height="24" viewBox="0 0 24 24" fill="none" xmlns="http://www.w3.org/2000/svg">
<path d="M12 9.50007C12.8284 9.50007 13.4999 10.1717 13.5 11.0001C13.5 11.8285 12.8284 12.5001 12 12.5001C11.1716 12.5001 10.5 11.8285 10.5 11.0001C10.5001 10.1717 11.1716 9.50008 12 9.50007Z" fill="#343434"/>
<path fill-rule="evenodd" clip-rule="evenodd" d="M10.7392 2.94734C11.4738 2.35075 12.5261 2.35102 13.2607 2.94734L20.6308 8.93464C21.0594 9.28287 21.1245 9.91325 20.7764 10.3419C20.467 10.7226 19.9359 10.8157 19.5205 10.588L18.9892 19.6173C18.931 20.608 18.158 21.3953 17.1894 21.4903L16.9932 21.5001H6.76464C5.77185 21.5 4.94026 20.7744 4.78905 19.8126L4.76854 19.6173L4.24218 10.6798C3.87723 10.7706 3.47636 10.6529 3.22362 10.3419C2.8759 9.91326 2.94073 9.28276 3.36913 8.93464L10.7392 2.94734ZM6.16014 9.24323L6.76464 19.5001H9.49999V16.5001C9.50005 15.9478 9.94775 15.5001 10.5 15.5001H13.5C14.0522 15.5001 14.4999 15.9478 14.5 16.5001V19.5001H16.9932L17.6074 9.05573L12 4.49909L6.16014 9.24323Z" fill="#343434"/>
</svg>
