<svg width="24" height="24" viewBox="0 0 24 24" fill="none" xmlns="http://www.w3.org/2000/svg">
<path d="M12 13.4L9.10005 16.3C8.91672 16.4833 8.68338 16.575 8.40005 16.575C8.11672 16.575 7.88338 16.4833 7.70005 16.3C7.51672 16.1167 7.42505 15.8833 7.42505 15.6C7.42505 15.3167 7.51672 15.0833 7.70005 14.9L10.6 12L7.70005 9.12501C7.51672 8.94168 7.42505 8.70835 7.42505 8.42501C7.42505 8.14168 7.51672 7.90835 7.70005 7.72501C7.88338 7.54168 8.11672 7.45001 8.40005 7.45001C8.68338 7.45001 8.91672 7.54168 9.10005 7.72501L12 10.625L14.875 7.72501C15.0584 7.54168 15.2917 7.45001 15.575 7.45001C15.8584 7.45001 16.0917 7.54168 16.275 7.72501C16.475 7.92501 16.575 8.16251 16.575 8.43751C16.575 8.71251 16.475 8.94168 16.275 9.12501L13.375 12L16.275 14.9C16.4584 15.0833 16.55 15.3167 16.55 15.6C16.55 15.8833 16.4584 16.1167 16.275 16.3C16.075 16.5 15.8375 16.6 15.5625 16.6C15.2875 16.6 15.0584 16.5 14.875 16.3L12 13.4Z" fill="#343434"/>
</svg>
