<svg width="24" height="24" viewBox="0 0 24 24" fill="none" xmlns="http://www.w3.org/2000/svg">
<path d="M13.2504 16C13.6645 16.0002 14.0004 16.3359 14.0004 16.75C14.0004 17.1641 13.6645 17.4998 13.2504 17.5H8.2504C7.83618 17.5 7.5004 17.1642 7.5004 16.75C7.5004 16.3358 7.83618 16 8.2504 16H13.2504Z" fill="#343434"/>
<path d="M15.7504 13C16.1645 13.0002 16.5004 13.3359 16.5004 13.75C16.5004 14.1641 16.1645 14.4998 15.7504 14.5H8.2504C7.83618 14.5 7.5004 14.1642 7.5004 13.75C7.5004 13.3358 7.83618 13 8.2504 13H15.7504Z" fill="#343434"/>
<path d="M15.7504 10C16.1645 10.0002 16.5004 10.3359 16.5004 10.75C16.5004 11.1641 16.1645 11.4998 15.7504 11.5H8.2504C7.83618 11.5 7.5004 11.1642 7.5004 10.75C7.5004 10.3358 7.83618 10 8.2504 10H15.7504Z" fill="#343434"/>
<path fill-rule="evenodd" clip-rule="evenodd" d="M14.435 2.00977C14.8901 2.05462 15.3189 2.25415 15.6469 2.57812L19.3842 6.26953C19.7769 6.65752 19.9919 7.19068 19.9779 7.74219L19.6664 20.0498C19.639 21.1344 18.7411 21.9997 17.643 22H6.40762C5.30964 21.9996 4.41163 21.1343 4.38419 20.0498L3.97891 4.0498C3.95236 2.99621 4.75524 2.11643 5.79336 2.01074L6.00333 2H14.2387L14.435 2.00977ZM5.99258 4.00098L5.9877 4.00195C5.98547 4.00292 5.98312 4.00484 5.98086 4.00684L6.38516 19.9922C6.38763 19.9945 6.39129 19.997 6.39395 19.998L6.39786 19.999C6.39786 19.999 6.40412 20 6.4086 20H17.643C17.6479 20 17.6527 19.999 17.6527 19.999L17.6576 19.998C17.6601 19.997 17.6622 19.9943 17.6645 19.9922L17.975 7.69141H15.2397C14.6874 7.69141 14.2397 7.24369 14.2397 6.69141V4H6.00333C5.99782 4.00001 5.99258 4.00098 5.99258 4.00098Z" fill="#343434"/>
</svg>
