<svg width="24" height="24" viewBox="0 0 24 24" fill="none" xmlns="http://www.w3.org/2000/svg">
<path d="M11 16.175V5C11 4.71667 11.0959 4.47917 11.2875 4.2875C11.4792 4.09583 11.7167 4 12 4C12.2834 4 12.5209 4.09583 12.7125 4.2875C12.9042 4.47917 13 4.71667 13 5V16.175L17.9 11.275C18.1 11.075 18.3334 10.9792 18.6 10.9875C18.8667 10.9958 19.1 11.1 19.3 11.3C19.4834 11.5 19.5792 11.7333 19.5875 12C19.5959 12.2667 19.5 12.5 19.3 12.7L12.7 19.3C12.6 19.4 12.4917 19.4708 12.375 19.5125C12.2584 19.5542 12.1334 19.575 12 19.575C11.8667 19.575 11.7417 19.5542 11.625 19.5125C11.5084 19.4708 11.4 19.4 11.3 19.3L4.70005 12.7C4.51672 12.5167 4.42505 12.2875 4.42505 12.0125C4.42505 11.7375 4.51672 11.5 4.70005 11.3C4.90005 11.1 5.13755 11 5.41255 11C5.68755 11 5.92505 11.1 6.12505 11.3L11 16.175Z" fill="#343434"/>
</svg>
