<svg width="100" height="100" viewBox="0 0 100 100" fill="none" xmlns="http://www.w3.org/2000/svg">
<rect width="100" height="100" fill="#F2FFE5"/>
<path d="M49.4754 20C56.7598 20 63.4611 22.3207 68.3555 26.8718C73.2668 31.4387 76.2295 38.1324 76.2295 46.6109H73.082C73.082 38.8955 70.4082 33.0662 66.2059 29.1587C61.9869 25.2356 56.0977 23.1307 49.4754 23.1307C42.8531 23.1307 36.9639 25.2356 32.7449 29.1587C28.5427 33.0662 25.8689 38.8955 25.8689 46.6109H22.7213C22.7213 38.1324 25.684 31.4387 30.5953 26.8718C35.4897 22.3207 42.191 20 49.4754 20Z" fill="#B97942"/>
<path d="M50 42.4367C67.6731 42.4367 82 42.4367 82 51.8288C82 54.7183 80.6424 56.7163 78.25 58.1014C77.7035 64.3144 75.0723 73.3418 66.4754 77.2871C61.9546 79.3617 53.9825 79.8522 50.4631 79.9683C50.407 79.9882 50.3471 80.0009 50.2838 79.9999C50.1365 79.9976 49.9601 79.9905 49.7582 79.9857C49.5565 79.9905 49.3808 79.9976 49.2336 79.9999C49.1701 80.0009 49.1096 79.9883 49.0533 79.9683C45.5338 79.8522 37.5627 79.3615 33.042 77.2871C24.2995 73.2751 21.727 64.0075 21.2418 57.7885C19.1663 56.4199 18 54.5071 18 51.8288C18 42.4367 32.3269 42.4367 50 42.4367Z" fill="#DCA363"/>
<path d="M53.7794 39.0808C54.3617 34.9418 57.0195 31.8908 62.3696 32.6349C65.5379 33.0758 67.4306 34.5392 68.3266 36.5187C68.9451 36.4319 69.635 36.4341 70.3973 36.5401C74.3803 37.0944 75.6553 39.82 75.222 42.9014C75.179 43.2077 75.1188 43.5058 75.0448 43.7941C76.1766 45.3457 76.4975 47.3706 76.1944 49.5266C76.0029 50.8883 75.5836 52.1301 74.9208 53.1597C73.9621 53.8081 72.3908 54.3807 70.0284 54.8015C66.2052 55.4825 61.1635 55.6398 55.2774 55.6769C53.8666 54.0798 53.4474 51.8776 53.7794 49.5164C54.003 47.9275 54.5334 46.4991 55.4034 45.3839C53.8898 43.7772 53.4375 41.5121 53.7794 39.0808Z" fill="#68D979"/>
<path d="M64.418 46.4434C64.5944 45.7168 65.3201 45.2614 66.0553 45.4161C66.7905 45.5709 67.2688 46.2798 67.1342 47.0151L65.6096 55.3371C64.534 55.4223 63.3997 55.4871 62.2111 55.5359L64.418 46.4434Z" fill="#38C25C"/>
<path d="M42.2862 29.1083C46.2234 28.4358 48.7518 29.8838 50.0905 32.3491C50.6021 32.2391 51.1742 32.1921 51.8098 32.2197C55.3388 32.3728 56.7124 34.6188 56.6346 37.3356C59.8171 38.7809 60.8291 41.7918 60.3621 45.1134C60.0516 47.3212 59.1496 49.2185 57.5649 50.3965C57.8984 52.0965 57.4902 53.9172 56.5608 55.6653C54.4818 55.6859 52.2891 55.6907 50.0004 55.6907C47.4652 55.6907 45.0475 55.6849 42.7719 55.6571C41.8064 53.9578 41.7827 52.0401 42.4328 50.1397C42.2011 50.1938 41.9621 50.2451 41.7145 50.2874C36.3898 51.1971 33.6391 48.2289 32.9276 44.1096C32.3873 40.9804 33.1795 38.0875 35.9256 36.4785C35.7705 32.9302 37.5597 29.9159 42.2862 29.1083Z" fill="#38C25C"/>
<path d="M30.3592 41.6796C31.0852 39.7312 32.7675 38.47 35.6287 38.8526C38.7765 39.2737 40.0183 41.2389 39.9811 43.5975C40.137 43.6182 40.2972 43.6435 40.4606 43.676C43.6887 44.3178 44.6544 46.5654 44.2209 49.0518C45.4783 50.3098 45.8635 52.1206 45.6 54.0709C45.5235 54.6365 45.3952 55.1759 45.2168 55.679C39.1183 55.6475 33.9007 55.5016 29.9709 54.8016C27.52 54.3649 25.919 53.7672 24.9719 53.0885C24.7476 52.9277 24.5532 52.7567 24.3879 52.5708C23.8913 50.9658 24.0594 49.3421 25.1983 47.943C25.0066 47.1829 25.0151 46.3415 25.1891 45.4757C25.6821 43.0228 27.3219 41.2602 30.3592 41.6796Z" fill="#68D979"/>
<path d="M33.0366 45.1068C33.6197 44.9084 34.2557 45.2074 34.472 45.7815L35.9587 49.7305L37.1196 47.9512C37.3823 47.5484 37.9174 47.4226 38.3337 47.6658C38.7497 47.9091 38.8995 48.4349 38.6739 48.8592L36.8911 52.2049L38.1257 55.4824C38.1342 55.5048 38.14 55.5281 38.1472 55.5506C37.086 55.5102 36.0668 55.4593 35.0929 55.3917L32.3173 46.5152C32.1345 45.9297 32.4534 45.3055 33.0366 45.1068Z" fill="#38C25C"/>
<path d="M71.0417 64.9811C71.5608 64.7253 72.1911 64.9368 72.4485 65.4529C72.7057 65.9693 72.4932 66.5962 71.9741 66.8521C68.6873 68.472 64.7512 69.2942 61.22 69.7046C57.6761 70.1165 54.4663 70.1207 52.5919 70.0664C52.013 70.0494 51.5567 69.5691 51.5735 68.9933C51.5905 68.4174 52.0744 67.9637 52.6534 67.9803C54.4639 68.0328 57.5651 68.0281 60.9761 67.6318C64.4 67.2339 68.0643 66.4484 71.0417 64.9811Z" fill="#B97942"/>
<path d="M28.6606 63.2608C28.9762 62.7778 29.6267 62.6405 30.1124 62.9541C30.9674 63.5068 34.3542 64.873 40.0325 64.873C40.6118 64.873 41.0815 65.3404 41.0817 65.9166C41.0817 66.493 40.6119 66.9602 40.0325 66.9602C34.0898 66.9601 30.2663 65.5435 28.969 64.7049C28.4835 64.3908 28.3451 63.7439 28.6606 63.2608Z" fill="#B97942"/>
</svg>
