<svg width="24" height="24" viewBox="0 0 24 24" fill="none" xmlns="http://www.w3.org/2000/svg">
<path d="M9.87495 13.125C9.29162 12.5417 8.99995 11.8333 8.99995 11V5C8.99995 4.16667 9.29162 3.45833 9.87495 2.875C10.4583 2.29167 11.1666 2 12 2C12.8333 2 13.5416 2.29167 14.125 2.875C14.7083 3.45833 15 4.16667 15 5V11C15 11.8333 14.7083 12.5417 14.125 13.125C13.5416 13.7083 12.8333 14 12 14C11.1666 14 10.4583 13.7083 9.87495 13.125ZM11 20V17.925C9.46662 17.7083 8.15412 17.0583 7.06245 15.975C5.97079 14.8917 5.30829 13.575 5.07495 12.025C5.04162 11.7417 5.11662 11.5 5.29995 11.3C5.48329 11.1 5.71662 11 5.99995 11C6.28329 11 6.52079 11.0958 6.71245 11.2875C6.90412 11.4792 7.03329 11.7167 7.09995 12C7.33329 13.1667 7.91245 14.125 8.83745 14.875C9.76245 15.625 10.8166 16 12 16C13.2 16 14.2583 15.6208 15.175 14.8625C16.0916 14.1042 16.6666 13.15 16.9 12C16.9666 11.7167 17.0958 11.4792 17.2875 11.2875C17.4791 11.0958 17.7166 11 18 11C18.2833 11 18.5166 11.1 18.7 11.3C18.8833 11.5 18.9583 11.7417 18.925 12.025C18.6916 13.5417 18.0333 14.85 16.95 15.95C15.8666 17.05 14.55 17.7083 13 17.925V20C13 20.2833 12.9041 20.5208 12.7125 20.7125C12.5208 20.9042 12.2833 21 12 21C11.7166 21 11.4791 20.9042 11.2875 20.7125C11.0958 20.5208 11 20.2833 11 20Z" fill="#343434"/>
</svg>
