<svg width="100" height="100" viewBox="0 0 100 100" fill="none" xmlns="http://www.w3.org/2000/svg">
<rect width="100" height="100" fill="#E5F4FF"/>
<path d="M41.7748 67.0119C40.8637 65.2143 40.5255 63.1821 40.8055 61.1876L43.6214 41.1298C43.9529 38.7681 45.4243 36.7182 47.5597 35.643C50.0545 34.3867 53.0499 34.6605 55.2739 36.3481L69.6198 47.234C70.8141 48.1403 71.7863 49.305 72.4631 50.6404L77.933 61.4329C80.4014 66.3034 78.4414 72.2463 73.5551 74.7068L60.1908 81.4364C55.3045 83.8969 49.3423 81.9432 46.8738 77.0727L41.7748 67.0119Z" fill="#8ED0F3"/>
<path d="M36.1021 39.7975C36.0005 40.6967 35.2123 41.3604 34.306 41.3099C33.3996 41.2594 32.6905 40.5124 32.69 39.6075L32.6873 33.8157C32.6867 32.6484 33.6706 31.7205 34.8398 31.7857C36.0091 31.8508 36.8831 32.8821 36.7521 34.042L36.1021 39.7975Z" fill="#408DE5"/>
<path d="M23.498 34.9988L21.3201 30.7016C20.5796 29.2405 21.1676 27.4576 22.6335 26.7195L37.5589 19.2038C45.7145 15.097 54.9722 19.1664 59.1569 23.4744C60.2993 24.6504 59.7345 26.4445 58.2686 27.1826L43.2506 34.745C41.7847 35.4831 40.0099 34.7373 38.5329 34.0216C35.9552 32.7726 32.2673 33.9039 30.3325 34.8781L27.4931 36.3079C26.0272 37.046 24.2385 36.4599 23.498 34.9988Z" fill="#8ED0F3"/>
<path d="M40.0955 37.383C39.6828 36.5689 39.9144 35.6198 40.7031 35.1572C41.644 34.6054 43.217 33.7392 45.7976 32.4397C48.3783 31.1402 50.0112 30.3921 51.0151 29.9646C51.8566 29.6063 52.7604 29.9837 53.173 30.7978L54.335 33.0906C54.7917 33.9916 54.4853 35.0755 53.6007 35.5668C52.5926 36.1267 51.02 36.9684 48.688 38.1427C46.3561 39.3169 44.7432 40.0792 43.6929 40.5559C42.7712 40.9741 41.7141 40.5768 41.2575 39.6758L40.0955 37.383Z" fill="#408DE5"/>
<path d="M21.417 30.8934C20.6229 29.3265 21.2536 27.4144 22.8255 26.6229L24.1071 25.9776L28.8494 35.624L27.6853 36.2108C26.1133 37.0023 24.1951 36.3737 23.401 34.8068L21.417 30.8934Z" fill="#408DE5"/>
<path d="M36.1021 39.7975C36.0005 40.6967 35.2123 41.3604 34.306 41.3099C33.3996 41.2594 32.6905 40.5124 32.69 39.6075L32.6873 33.8157C32.6867 32.6484 33.6706 31.7205 34.8398 31.7857C36.0091 31.8508 36.8831 32.8821 36.7521 34.042L36.1021 39.7975Z" fill="#408DE5"/>
<path d="M23.498 34.9988L21.3201 30.7016C20.5796 29.2405 21.1676 27.4576 22.6335 26.7195L37.5589 19.2038C45.7145 15.097 54.9722 19.1664 59.1569 23.4744C60.2993 24.6504 59.7345 26.4445 58.2686 27.1826L43.2506 34.745C41.7847 35.4831 40.0099 34.7373 38.5329 34.0216C35.9552 32.7726 32.2673 33.9039 30.3325 34.8781L27.4931 36.3079C26.0272 37.046 24.2385 36.4599 23.498 34.9988Z" fill="#A5E0FF"/>
<path d="M40.0955 37.383C39.6828 36.5689 39.9144 35.6198 40.7031 35.1572C41.644 34.6054 43.217 33.7392 45.7976 32.4397C48.3783 31.1402 50.0112 30.3921 51.0151 29.9646C51.8566 29.6063 52.7604 29.9837 53.173 30.7978L54.335 33.0906C54.7917 33.9916 54.4853 35.0755 53.6007 35.5668C52.5926 36.1267 51.02 36.9684 48.688 38.1427C46.3561 39.3169 44.7432 40.0792 43.6929 40.5559C42.7712 40.9741 41.7141 40.5768 41.2575 39.6758L40.0955 37.383Z" fill="#408DE5"/>
<path d="M21.417 30.8934C20.6229 29.3265 21.2536 27.4144 22.8255 26.6229L24.1071 25.9776L28.8494 35.624L27.6853 36.2108C26.1133 37.0023 24.1951 36.3737 23.401 34.8068L21.417 30.8934Z" fill="#408DE5"/>
</svg>
