<svg width="100" height="100" viewBox="0 0 100 100" fill="none" xmlns="http://www.w3.org/2000/svg">
<rect width="100" height="100" fill="#EDFFFB"/>
<path d="M63.8419 30.0048C68.9169 26.0581 76.3332 27.1637 80.4065 32.4732C84.4783 37.7826 83.6674 45.2866 78.5936 49.2336L75.0804 44.6554C77.7383 42.588 78.1627 38.6568 76.0298 35.8756C73.8961 33.0947 70.0113 32.5164 67.3531 34.5839L63.8419 30.0048Z" fill="#40E5E5"/>
<path d="M19.6949 47.9354C20.2093 46.0249 22.7841 45.6802 23.7868 47.3881L25.8137 50.839C25.8391 50.8416 25.8647 50.8434 25.8903 50.8469L46.002 53.5703C47.3373 53.7511 48.2099 55.0562 47.8613 56.3516L45.7018 64.3723C45.3528 65.6675 43.9413 66.3636 42.6942 65.8558L23.9085 58.2071C23.8847 58.1973 23.8616 58.1862 23.8382 58.1758L20.3491 60.1558C18.6227 61.1359 16.566 59.5563 17.0804 57.6457L19.6949 47.9354Z" fill="#40E5E5"/>
<path d="M32.5766 46.1033C31.3392 43.2426 31.9007 39.9448 34.3201 37.9693C36.6383 36.0766 40.0758 33.5689 44.7707 30.8714C49.4655 28.1739 53.3666 26.4652 56.1727 25.4136C59.1015 24.3162 62.2522 25.4812 64.1229 27.978L81.3192 50.9289C82.7561 52.8466 83.1959 55.3164 81.7973 57.2618C79.786 60.0595 75.6056 64.3898 67.0637 69.2976C58.5219 74.2055 52.6633 75.6431 49.2231 75.9777C46.8308 76.2103 44.9014 74.5964 43.951 72.3993L32.5766 46.1033Z" fill="#8EF3F3"/>
<path d="M59.5065 28.8924C60.5652 30.7172 55.4866 34.1218 48.9606 37.8714C42.4347 41.621 36.9326 44.2956 35.8739 42.4708C34.8152 40.646 39.8938 37.2414 46.4198 33.4918C52.9458 29.7422 58.4479 27.0676 59.5065 28.8924Z" fill="#00CED5"/>
<path d="M21.4318 49.0528C22.0896 49.1962 21.7267 51.0094 21.1167 53.2106C20.5066 55.4119 19.8806 57.1677 19.2228 57.0243C18.5649 56.881 18.9279 55.0678 19.5379 52.8665C20.1479 50.6653 20.774 48.9095 21.4318 49.0528Z" fill="#00CED5"/>
</svg>
